<svg width="29" height="25" viewBox="0 0 29 25" fill="none" xmlns="http://www.w3.org/2000/svg">
<path d="M26.3553 0.0139084C23.5864 0.226497 19.9201 2.88 17.0759 7.02567C15.053 9.97412 12.8391 14.6653 12.8391 18.4203C12.8391 21.3658 15.151 23.7536 18.0028 23.7536C20.8546 23.7536 23.1665 21.3658 23.1665 18.4203C23.1665 15.9126 21.4908 13.8092 19.233 13.2392C19.7995 11.258 20.8141 9.10337 22.2396 7.02567C24.1378 4.25885 26.4022 2.15668 28.5216 1.00119L26.3553 0.0139084Z" fill="#003078"/>
<path d="M4.23679 7.02557C7.22761 2.66622 11.1274 -0.0431738 13.937 0.000520662L15.8902 0.890673C13.7117 2.01967 11.3608 4.16818 9.40047 7.02557C7.97502 9.10327 6.96037 11.2579 6.39387 13.2391C8.65175 13.8091 10.3274 15.9125 10.3274 18.4202C10.3274 21.3657 8.0155 23.7535 5.16368 23.7535C2.31186 23.7535 0 21.3657 0 18.4202C0 14.6652 2.21394 9.97402 4.23679 7.02557Z" fill="#003078"/>
</svg>
