<svg width="29" height="25" viewBox="0 0 29 25" fill="none" xmlns="http://www.w3.org/2000/svg">
<path d="M2.1662 24.4934C4.93513 24.2808 8.60138 21.6273 11.4456 17.4817C13.4684 14.5332 15.6824 9.84205 15.6824 6.08707C15.6824 3.14154 13.3705 0.753727 10.5187 0.753727C7.66689 0.753727 5.35503 3.14154 5.35503 6.08707C5.35503 8.59472 7.03065 10.6982 9.28852 11.2681C8.72202 13.2493 7.70737 15.404 6.28192 17.4817C4.38369 20.2485 2.1193 22.3506 -0.000114441 23.5061L2.1662 24.4934Z" fill="#003078"/>
<path d="M24.2847 17.4818C21.2939 21.8411 17.3941 24.5505 14.5845 24.5068L12.6313 23.6167C14.8098 22.4877 17.1606 20.3391 19.121 17.4818C20.5465 15.4041 21.5611 13.2494 22.1276 11.2682C19.8697 10.6983 18.1941 8.59482 18.1941 6.08716C18.1941 3.14164 20.506 0.753824 23.3578 0.753824C26.2096 0.753824 28.5215 3.14164 28.5215 6.08716C28.5215 9.84214 26.3075 14.5333 24.2847 17.4818Z" fill="#003078"/>
</svg>
