<svg width="888" height="126" viewBox="0 0 888 126" fill="none" xmlns="http://www.w3.org/2000/svg">
<path d="M77.8007 96.3285C77.8007 102.59 76.2768 107.964 73.2291 112.453C70.1813 116.885 65.6651 120.265 59.6805 122.592C53.7512 124.864 46.5197 126 37.986 126C29.8402 126 22.8581 124.753 17.0397 122.26C11.2213 119.766 6.9267 116.664 4.15602 112.951C1.38534 109.183 0 105.416 0 101.648C0 99.1544 0.886618 97.0211 2.65985 95.248C4.43309 93.4749 6.67734 92.5884 9.39261 92.5884C11.7754 92.5884 13.604 93.1702 14.8786 94.3338C16.1531 95.4974 17.3722 97.1319 18.5359 99.2375C20.8632 103.282 23.6339 106.302 26.8479 108.297C30.1173 110.292 34.5504 111.289 40.1472 111.289C44.6911 111.289 48.4038 110.292 51.2853 108.297C54.2222 106.247 55.6907 103.92 55.6907 101.315C55.6907 97.3259 54.1668 94.4169 51.119 92.5884C48.1267 90.7599 43.1672 89.0145 36.2405 87.3522C28.4272 85.4129 22.0546 83.3905 17.1228 81.285C12.2464 79.124 8.33975 76.2982 5.40283 72.8074C2.46591 69.3166 0.997445 65.0224 0.997445 59.9248C0.997445 55.3813 2.35508 51.0871 5.07034 47.0422C7.78561 42.9974 11.7754 39.7836 17.0397 37.4011C22.3594 34.9631 28.7597 33.7441 36.2405 33.7441C42.1143 33.7441 47.3786 34.3536 52.0334 35.5726C56.7435 36.7916 60.6502 38.4261 63.7534 40.4763C66.9119 42.5264 69.2947 44.7982 70.9017 47.2916C72.5641 49.785 73.3953 52.223 73.3953 54.6055C73.3953 57.2098 72.5087 59.343 70.7355 61.0053C69.0176 62.6675 66.5517 63.4987 63.3377 63.4987C61.0104 63.4987 59.0155 62.8338 57.3531 61.504C55.7461 60.1741 53.8897 58.1794 51.784 55.5198C50.0662 53.3034 48.0436 51.5303 45.7162 50.2005C43.3889 48.8707 40.2303 48.2058 36.2405 48.2058C32.1399 48.2058 28.732 49.0923 26.0167 50.8654C23.3014 52.5831 21.9438 54.7441 21.9438 57.3483C21.9438 59.7309 22.9412 61.6979 24.9361 63.2493C26.931 64.7454 29.6186 65.9921 32.9988 66.9894C36.379 67.9868 41.0338 69.2058 46.963 70.6464C54.0006 72.3641 59.7359 74.4143 64.169 76.7968C68.6575 79.1794 72.0377 82.0053 74.3096 85.2744C76.637 88.4881 77.8007 92.1728 77.8007 96.3285Z" fill="white"/>
<path d="M83 112.203V13.7968C83 9.2533 83.9974 5.81794 85.9923 3.49077C88.0426 1.16359 90.7856 0 94.2213 0C97.6569 0 100.428 1.16359 102.533 3.49077C104.639 5.76253 105.692 9.19789 105.692 13.7968V112.203C105.692 116.802 104.611 120.265 102.45 122.592C100.344 124.864 97.6015 126 94.2213 126C90.8964 126 88.1812 124.809 86.0755 122.426C84.0252 120.044 83 116.636 83 112.203Z" fill="white"/>
<path d="M199.352 79.872C199.352 86.6319 198.299 92.8654 196.193 98.5726C194.088 104.28 191.04 109.183 187.05 113.284C183.06 117.384 178.295 120.542 172.753 122.759C167.212 124.92 160.978 126 154.051 126C147.18 126 141.001 124.892 135.515 122.675C130.029 120.459 125.264 117.301 121.219 113.201C117.229 109.045 114.181 104.169 112.075 98.5726C110.025 92.9208 109 86.6873 109 79.872C109 73.0013 110.053 66.7124 112.159 61.0053C114.264 55.2982 117.284 50.4222 121.219 46.3773C125.153 42.3325 129.919 39.2296 135.515 37.0686C141.112 34.8522 147.291 33.7441 154.051 33.7441C160.923 33.7441 167.157 34.8522 172.753 37.0686C178.35 39.285 183.143 42.4433 187.133 46.5435C191.123 50.6438 194.143 55.5198 196.193 61.1715C198.299 66.8232 199.352 73.0567 199.352 79.872ZM176.577 79.872C176.577 70.6187 174.527 63.4156 170.426 58.2625C166.381 53.1095 160.923 50.533 154.051 50.533C149.618 50.533 145.712 51.6966 142.331 54.0237C138.951 56.2955 136.347 59.6755 134.518 64.1636C132.689 68.6517 131.775 73.8879 131.775 79.872C131.775 85.8008 132.662 90.9815 134.435 95.4142C136.263 99.847 138.84 103.255 142.165 105.637C145.545 107.964 149.507 109.128 154.051 109.128C160.923 109.128 166.381 106.551 170.426 101.398C174.527 96.19 176.577 89.0145 176.577 79.872Z" fill="white"/>
<path d="M217.691 46.4604L236.06 97.9908L255.843 44.2164C257.394 39.8945 258.918 36.847 260.414 35.0739C261.911 33.2454 264.183 32.3311 267.23 32.3311C270.112 32.3311 272.55 33.3008 274.545 35.2401C276.595 37.1794 277.62 39.4235 277.62 41.9723C277.62 42.9697 277.426 44.1332 277.039 45.4631C276.706 46.7929 276.29 48.0396 275.792 49.2032C275.348 50.3668 274.822 51.6966 274.212 53.1926L252.435 107.216C251.825 108.768 251.022 110.735 250.024 113.117C249.082 115.5 248.002 117.55 246.783 119.268C245.619 120.93 244.151 122.232 242.377 123.174C240.66 124.116 238.554 124.587 236.06 124.587C232.846 124.587 230.269 123.867 228.33 122.426C226.446 120.93 225.033 119.323 224.091 117.606C223.204 115.832 221.68 112.369 219.519 107.216L197.908 53.7744C197.409 52.4446 196.883 51.1148 196.329 49.785C195.83 48.4552 195.387 47.0976 194.999 45.7124C194.666 44.3272 194.5 43.1359 194.5 42.1385C194.5 40.5871 194.971 39.0633 195.913 37.5673C196.855 36.0158 198.157 34.7691 199.82 33.8272C201.482 32.8298 203.283 32.3311 205.223 32.3311C208.991 32.3311 211.567 33.4116 212.953 35.5726C214.393 37.7335 215.973 41.3628 217.691 46.4604Z" fill="white"/>
<path d="M340.798 85.4406H296.412C296.467 90.5937 297.492 95.1372 299.487 99.0712C301.537 103.005 304.225 105.97 307.55 107.964C310.93 109.959 314.643 110.956 318.688 110.956C321.403 110.956 323.869 110.652 326.086 110.042C328.358 109.377 330.546 108.38 332.652 107.05C334.758 105.665 336.697 104.197 338.471 102.645C340.244 101.094 342.543 98.9881 345.37 96.3285C346.533 95.3311 348.196 94.8325 350.357 94.8325C352.684 94.8325 354.568 95.4697 356.009 96.7441C357.45 98.0185 358.17 99.8193 358.17 102.146C358.17 104.197 357.367 106.607 355.76 109.377C354.153 112.092 351.714 114.724 348.445 117.273C345.231 119.766 341.158 121.844 336.226 123.507C331.35 125.169 325.725 126 319.353 126C304.779 126 293.447 121.844 285.357 113.533C277.266 105.222 273.221 93.9459 273.221 79.7058C273.221 73.0013 274.218 66.7955 276.213 61.0884C278.208 55.3259 281.117 50.3945 284.941 46.2942C288.765 42.1939 293.475 39.0633 299.071 36.9024C304.668 34.686 310.875 33.5778 317.69 33.5778C326.557 33.5778 334.148 35.4617 340.465 39.2296C346.838 42.942 351.604 47.7625 354.762 53.6913C357.921 59.6201 359.5 65.6596 359.5 71.81C359.5 77.5172 357.865 81.2295 354.596 82.9472C351.326 84.6095 346.727 85.4406 340.798 85.4406ZM296.412 72.558H337.556C337.002 64.8008 334.896 59.0106 331.239 55.1873C327.637 51.3087 322.872 49.3694 316.942 49.3694C311.29 49.3694 306.635 51.3364 302.978 55.2705C299.376 59.1491 297.187 64.9116 296.412 72.558Z" fill="white"/>
<path d="M385.403 46.2942V49.0369C389.392 43.7731 393.742 39.9222 398.453 37.4842C403.218 34.9908 408.676 33.7441 414.827 33.7441C420.812 33.7441 426.159 35.0462 430.87 37.6504C435.58 40.2546 439.098 43.9393 441.426 48.7045C442.922 51.4749 443.892 54.467 444.335 57.6807C444.778 60.8945 445 64.9947 445 69.9815V112.203C445 116.747 443.947 120.182 441.841 122.509C439.791 124.836 437.104 126 433.779 126C430.398 126 427.656 124.809 425.55 122.426C423.444 120.044 422.391 116.636 422.391 112.203V74.3865C422.391 66.9063 421.338 61.1992 419.233 57.2652C417.182 53.2757 413.054 51.281 406.848 51.281C402.803 51.281 399.118 52.5 395.793 54.938C392.468 57.3206 390.03 60.6174 388.478 64.8285C387.37 68.2084 386.816 74.5251 386.816 83.7784V112.203C386.816 116.802 385.735 120.265 383.574 122.592C381.468 124.864 378.725 126 375.345 126C372.076 126 369.388 124.809 367.282 122.426C365.177 120.044 364.124 116.636 364.124 112.203V46.6266C364.124 42.3047 365.066 39.091 366.95 36.9855C368.834 34.8245 371.411 33.7441 374.68 33.7441C376.675 33.7441 378.476 34.215 380.083 35.157C381.69 36.0989 382.964 37.5119 383.906 39.3958C384.904 41.2797 385.403 43.5792 385.403 46.2942Z" fill="white"/>
<path d="M526.301 96.3285C526.301 102.59 524.777 107.964 521.729 112.453C518.681 116.885 514.165 120.265 508.18 122.592C502.251 124.864 495.02 126 486.486 126C478.34 126 471.358 124.753 465.54 122.26C459.721 119.766 455.427 116.664 452.656 112.951C449.885 109.183 448.5 105.416 448.5 101.648C448.5 99.1544 449.387 97.0211 451.16 95.248C452.933 93.4749 455.177 92.5884 457.893 92.5884C460.275 92.5884 462.104 93.1702 463.379 94.3338C464.653 95.4974 465.872 97.1319 467.036 99.2375C469.363 103.282 472.134 106.302 475.348 108.297C478.617 110.292 483.05 111.289 488.647 111.289C493.191 111.289 496.904 110.292 499.785 108.297C502.722 106.247 504.191 103.92 504.191 101.315C504.191 97.3259 502.667 94.4169 499.619 92.5884C496.627 90.7599 491.667 89.0145 484.741 87.3522C476.927 85.4129 470.555 83.3905 465.623 81.285C460.746 79.124 456.84 76.2982 453.903 72.8074C450.966 69.3166 449.497 65.0224 449.497 59.9248C449.497 55.3813 450.855 51.0871 453.57 47.0422C456.286 42.9974 460.275 39.7836 465.54 37.4011C470.859 34.9631 477.26 33.7441 484.741 33.7441C490.614 33.7441 495.879 34.3536 500.533 35.5726C505.244 36.7916 509.15 38.4261 512.253 40.4763C515.412 42.5264 517.795 44.7982 519.402 47.2916C521.064 49.785 521.895 52.223 521.895 54.6055C521.895 57.2098 521.009 59.343 519.235 61.0053C517.518 62.6675 515.052 63.4987 511.838 63.4987C509.51 63.4987 507.515 62.8338 505.853 61.504C504.246 60.1741 502.39 58.1794 500.284 55.5198C498.566 53.3034 496.544 51.5303 494.216 50.2005C491.889 48.8707 488.73 48.2058 484.741 48.2058C480.64 48.2058 477.232 49.0923 474.517 50.8654C471.801 52.5831 470.444 54.7441 470.444 57.3483C470.444 59.7309 471.441 61.6979 473.436 63.2493C475.431 64.7454 478.119 65.9921 481.499 66.9894C484.879 67.9868 489.534 69.2058 495.463 70.6464C502.501 72.3641 508.236 74.4143 512.669 76.7968C517.157 79.1794 520.538 82.0053 522.81 85.2744C525.137 88.4881 526.301 92.1728 526.301 96.3285Z" fill="white"/>
<path d="M585.309 115.611L565.277 82.6979L552.976 94.3338V112.369C552.976 116.747 551.812 120.127 549.484 122.509C547.213 124.836 544.58 126 541.588 126C538.097 126 535.354 124.836 533.359 122.509C531.364 120.182 530.367 116.747 530.367 112.203V15.4591C530.367 10.4169 531.337 6.59367 533.276 3.98945C535.216 1.32982 537.986 0 541.588 0C545.079 0 547.85 1.19129 549.9 3.57388C551.95 5.95646 552.976 9.47493 552.976 14.1293V69.1504L578.494 42.3879C581.652 39.0633 584.063 36.7916 585.725 35.5726C587.387 34.3536 589.41 33.7441 591.793 33.7441C594.619 33.7441 596.974 34.6583 598.858 36.4868C600.742 38.2599 601.684 40.504 601.684 43.219C601.684 46.5435 598.609 50.9763 592.458 56.5172L580.405 67.5712L603.679 104.141C605.397 106.856 606.616 108.934 607.336 110.375C608.112 111.76 608.5 113.09 608.5 114.364C608.5 117.966 607.503 120.819 605.508 122.925C603.568 124.975 600.991 126 597.777 126C595.007 126 592.873 125.252 591.377 123.756C589.881 122.26 587.858 119.545 585.309 115.611Z" fill="white"/>
<path d="M695.5 79.872C695.5 86.6319 694.447 92.8654 692.341 98.5726C690.236 104.28 687.188 109.183 683.198 113.284C679.208 117.384 674.443 120.542 668.901 122.759C663.36 124.92 657.126 126 650.199 126C643.328 126 637.149 124.892 631.664 122.675C626.178 120.459 621.412 117.301 617.367 113.201C613.377 109.045 610.329 104.169 608.224 98.5726C606.173 92.9208 605.148 86.6873 605.148 79.872C605.148 73.0013 606.201 66.7124 608.307 61.0053C610.412 55.2982 613.432 50.4222 617.367 46.3773C621.301 42.3325 626.067 39.2296 631.664 37.0686C637.26 34.8522 643.439 33.7441 650.199 33.7441C657.071 33.7441 663.305 34.8522 668.901 37.0686C674.498 39.285 679.292 42.4433 683.281 46.5435C687.271 50.6438 690.291 55.5198 692.341 61.1715C694.447 66.8232 695.5 73.0567 695.5 79.872ZM672.725 79.872C672.725 70.6187 670.675 63.4156 666.574 58.2625C662.529 53.1095 657.071 50.533 650.199 50.533C645.766 50.533 641.86 51.6966 638.479 54.0237C635.099 56.2955 632.495 59.6755 630.666 64.1636C628.837 68.6517 627.923 73.8879 627.923 79.872C627.923 85.8008 628.81 90.9815 630.583 95.4142C632.412 99.847 634.988 103.255 638.313 105.637C641.693 107.964 645.655 109.128 650.199 109.128C657.071 109.128 662.529 106.551 666.574 101.398C670.675 96.19 672.725 89.0145 672.725 79.872Z" fill="white"/>
<path d="M707.134 126C703.699 126 700.734 124.892 698.24 122.675C695.747 120.459 694.5 117.356 694.5 113.367C694.5 109.987 695.691 107.078 698.074 104.64C700.457 102.202 703.394 100.983 706.885 100.983C710.376 100.983 713.341 102.202 715.779 104.64C718.272 107.022 719.519 109.931 719.519 113.367C719.519 117.301 718.272 120.404 715.779 122.675C713.341 124.892 710.459 126 707.134 126Z" fill="white"/>
<path d="M804 96.3285C804 102.59 802.476 107.964 799.428 112.453C796.381 116.885 791.864 120.265 785.88 122.592C779.951 124.864 772.719 126 764.185 126C756.04 126 749.057 124.753 743.239 122.26C737.421 119.766 733.126 116.664 730.355 112.951C727.585 109.183 726.199 105.416 726.199 101.648C726.199 99.1544 727.086 97.0211 728.859 95.248C730.632 93.4749 732.877 92.5884 735.592 92.5884C737.975 92.5884 739.803 93.1702 741.078 94.3338C742.352 95.4974 743.571 97.1319 744.735 99.2375C747.063 103.282 749.833 106.302 753.047 108.297C756.317 110.292 760.75 111.289 766.346 111.289C770.89 111.289 774.603 110.292 777.485 108.297C780.422 106.247 781.89 103.92 781.89 101.315C781.89 97.3259 780.366 94.4169 777.318 92.5884C774.326 90.7599 769.367 89.0145 762.44 87.3522C754.627 85.4129 748.254 83.3905 743.322 81.285C738.446 79.124 734.539 76.2982 731.602 72.8074C728.665 69.3166 727.197 65.0224 727.197 59.9248C727.197 55.3813 728.554 51.0871 731.27 47.0422C733.985 42.9974 737.975 39.7836 743.239 37.4011C748.559 34.9631 754.959 33.7441 762.44 33.7441C768.314 33.7441 773.578 34.3536 778.233 35.5726C782.943 36.7916 786.85 38.4261 789.953 40.4763C793.111 42.5264 795.494 44.7982 797.101 47.2916C798.763 49.785 799.595 52.223 799.595 54.6055C799.595 57.2098 798.708 59.343 796.935 61.0053C795.217 62.6675 792.751 63.4987 789.537 63.4987C787.21 63.4987 785.215 62.8338 783.552 61.504C781.945 60.1741 780.089 58.1794 777.983 55.5198C776.266 53.3034 774.243 51.5303 771.916 50.2005C769.588 48.8707 766.43 48.2058 762.44 48.2058C758.339 48.2058 754.931 49.0923 752.216 50.8654C749.501 52.5831 748.143 54.7441 748.143 57.3483C748.143 59.7309 749.141 61.6979 751.135 63.2493C753.13 64.7454 755.818 65.9921 759.198 66.9894C762.578 67.9868 767.233 69.2058 773.162 70.6464C780.2 72.3641 785.935 74.4143 790.368 76.7968C794.857 79.1794 798.237 82.0053 800.509 85.2744C802.836 88.4881 804 92.1728 804 96.3285Z" fill="white"/>
<path d="M864.443 115.611L844.411 82.6979L832.109 94.3338V112.369C832.109 116.747 830.945 120.127 828.618 122.509C826.346 124.836 823.714 126 820.721 126C817.23 126 814.487 124.836 812.492 122.509C810.497 120.182 809.5 116.747 809.5 112.203V15.4591C809.5 10.4169 810.47 6.59367 812.409 3.98945C814.349 1.32982 817.119 0 820.721 0C824.212 0 826.983 1.19129 829.033 3.57388C831.084 5.95646 832.109 9.47493 832.109 14.1293V69.1504L857.627 42.3879C860.785 39.0633 863.196 36.7916 864.858 35.5726C866.521 34.3536 868.543 33.7441 870.926 33.7441C873.752 33.7441 876.107 34.6583 877.991 36.4868C879.875 38.2599 880.817 40.504 880.817 43.219C880.817 46.5435 877.742 50.9763 871.591 56.5172L859.538 67.5712L882.812 104.141C884.53 106.856 885.749 108.934 886.469 110.375C887.245 111.76 887.633 113.09 887.633 114.364C887.633 117.966 886.636 120.819 884.641 122.925C882.701 124.975 880.125 126 876.911 126C874.14 126 872.007 125.252 870.51 123.756C869.014 122.26 866.992 119.545 864.443 115.611Z" fill="white"/>
</svg>
