<?xml version="1.0" encoding="utf-8"?>
<!-- Generator: Adobe Illustrator 16.0.0, SVG Export Plug-In . SVG Version: 6.00 Build 0)  -->
<!DOCTYPE svg PUBLIC "-//W3C//DTD SVG 1.1//EN" "http://www.w3.org/Graphics/SVG/1.1/DTD/svg11.dtd">
<svg version="1.1" id="Layer_1" xmlns="http://www.w3.org/2000/svg" xmlns:xlink="http://www.w3.org/1999/xlink" x="0px" y="0px"
	 width="585.422px" height="94.596px" viewBox="6.928 373.78 585.422 94.596" enable-background="new 6.928 373.78 585.422 94.596"
	 xml:space="preserve">
<g>
	<path fill="#ED1C24" d="M41.835,467.576c-14.39-6.928-34.906-20.519-34.906-47.697c0-26.913,1.331-39.437,1.331-39.437h67.149
		c0,0,1.332,12.257,1.332,39.437C76.475,447.059,55.957,460.648,41.835,467.576"/>
	<path fill="#FFFFFF" d="M44.766,412.951c3.997,0,11.458,0.267,18.118-2.132c0,0-0.266,2.397-0.266,5.329s0.266,5.328,0.266,5.328
		c-6.128-2.131-13.854-2.131-18.118-2.131v14.922h-6.129v-14.922c-4.264,0-11.99,0-18.119,2.131c0,0,0.267-2.396,0.267-5.328
		s-0.267-5.329-0.267-5.329c6.661,2.132,14.389,2.132,18.119,2.132v-9.593c-3.465,0-8.526,0.267-14.39,2.132
		c0,0,0.268-2.398,0.268-5.329c0-2.933-0.268-5.33-0.268-5.33c5.862,1.865,10.925,2.131,14.39,2.131
		c-0.268-5.862-1.865-13.323-1.865-13.323s3.464,0.267,5.063,0.267c1.332,0,5.063-0.267,5.063-0.267s-1.865,7.461-1.865,13.323
		c3.464,0,8.526-0.266,14.389-2.131c0,0-0.267,2.397-0.267,5.33c0,2.931,0.267,5.329,0.267,5.329
		c-6.128-1.865-11.19-2.132-14.654-2.132L44.766,412.951L44.766,412.951z"/>
	<path fill="#0055A1" d="M41.835,467.576c9.061-4.265,20.519-11.458,27.979-22.916c-1.865-3.197-4.797-6.928-8.794-6.928
		c-5.861,0-7.993,4.796-7.993,4.796s-3.997-9.858-11.191-9.858s-11.19,10.125-11.19,10.125s-2.132-4.796-7.994-4.796
		c-3.997,0-6.929,3.464-8.794,6.928C21.051,456.118,32.775,463.313,41.835,467.576"/>
	<rect x="101.523" y="409.754" fill="#0055A1" width="3.464" height="29.044"/>
	<rect x="101.523" y="438.531" fill="#ED1C24" width="3.464" height="29.045"/>
	<rect x="101.523" y="380.442" fill="#D1D3D4" width="3.464" height="29.045"/>
	<path fill="#0055A1" d="M147.621,374.314c0,0.267-0.267,0.533-3.198,3.73c-0.267,0.267-0.799,0.799-2.132,0.799
		c-0.799,0-0.799,0-0.799-0.533c0-0.267,0.533-1.066,1.865-3.73c0.267-0.533,1.332-0.533,2.397-0.533
		C147.088,374.047,147.621,374.047,147.621,374.314 M152.417,381.508v14.389c0,4.796-3.464,7.728-9.06,7.728
		c-5.862,0-9.061-2.932-9.061-7.728v-14.389c0-0.533,0.532-0.799,1.6-0.799h0.799c1.066,0,1.6,0.267,1.6,0.799v14.123
		c0,2.398,2.131,4.264,5.063,4.264c2.931,0,5.063-1.864,5.063-4.264v-14.123c0-0.533,0.533-0.799,1.6-0.799h0.8
		C151.884,380.709,152.417,380.976,152.417,381.508"/>
	<path fill="#0055A1" d="M161.477,384.173v6.129h3.464c1.6,0,3.198-1.333,3.198-3.198s-1.333-2.931-3.198-2.931H161.477z
		 M172.403,386.571c0,2.665-1.6,4.263-3.731,5.329l0,0c1.066,0.267,1.865,1.599,2.665,3.464l2.665,6.928
		c0,0.266,0.268,0.532,0.268,0.532c0,0.267-0.533,0.533-1.865,0.533h-1.066c-0.8,0-1.599-0.268-1.599-0.533l-2.398-6.395
		c-0.799-1.599-1.599-2.398-3.729-2.398h-1.865v8.261c0,0.532-0.533,0.799-1.599,0.799h-0.8c-1.065,0-1.6-0.267-1.6-0.799v-20.518
		c0-0.799,0.268-1.066,1.066-1.066h5.861C169.738,380.709,172.403,382.574,172.403,386.571"/>
	<path fill="#0055A1" d="M184.126,385.505c0,0.799-0.267,1.333-0.531,2.132l-2.398,6.928h5.862l-2.398-7.194
		C184.393,386.838,184.393,386.305,184.126,385.505L184.126,385.505z M186.525,381.242l7.194,20.784c0,0.267,0,0.267,0,0.531
		c0,0.268-0.532,0.533-1.6,0.533h-1.064c-0.801,0-1.601-0.267-1.601-0.533l-1.599-4.528h-8.26l-1.066,4.796
		c-0.267,0.533-0.799,0.533-1.332,0.533h-0.8c-1.065,0-1.865-0.268-1.865-0.533c0-0.267,0-0.268,0-0.532l7.195-20.785
		c0.266-0.533,0.799-0.533,1.599-0.533h1.332C185.725,380.709,186.525,380.709,186.525,381.242"/>
	<path fill="#0055A1" d="M200.913,384.173v15.455h3.73c3.729,0,5.861-2.397,5.861-7.728c0-5.33-2.396-7.728-5.861-7.728
		L200.913,384.173L200.913,384.173z M215.036,391.9c0,7.728-3.997,11.191-10.126,11.191h-6.928c-0.8,0-1.065-0.267-1.065-1.064
		v-20.251c0-0.799,0.267-1.066,1.065-1.066h6.928C211.039,380.709,215.036,384.173,215.036,391.9"/>
	<path fill="#0055A1" d="M230.758,384.173v6.396h3.73c1.332,0,3.197-0.533,3.197-3.198s-1.865-3.198-3.464-3.198H230.758z
		 M241.949,387.371c0,6.129-5.329,6.928-7.194,6.928h-3.997v7.994c0,0.532-0.532,0.799-1.599,0.799h-0.8
		c-1.066,0-1.599-0.267-1.599-0.799v-20.518c0-0.799,0.267-1.066,1.064-1.066h6.662
		C237.419,380.709,241.949,381.508,241.949,387.371"/>
	<path fill="#0055A1" d="M248.611,391.9c0,5.063,2.132,7.994,5.862,7.994c3.729,0,5.861-2.665,5.861-7.994
		c0-5.063-2.132-7.994-5.861-7.994C250.476,384.173,248.611,386.838,248.611,391.9 M264.599,391.9
		c0,7.461-3.73,11.458-10.126,11.458c-6.661,0-10.126-3.997-10.126-11.458c0-7.461,3.729-11.458,10.126-11.458
		C260.869,380.442,264.599,384.439,264.599,391.9"/>
	<path fill="#0055A1" d="M272.859,384.173v15.455h3.729c3.73,0,5.862-2.397,5.862-7.728c0-5.33-2.396-7.728-5.862-7.728
		L272.859,384.173L272.859,384.173z M286.982,391.9c0,7.728-3.997,11.191-10.126,11.191h-6.928c-0.801,0-1.066-0.267-1.066-1.064
		v-20.251c0-0.799,0.267-1.066,1.066-1.066h6.928C282.985,380.709,286.982,384.173,286.982,391.9"/>
	<path fill="#0055A1" d="M295.242,384.173v6.396h3.73c1.332,0,3.196-0.533,3.196-3.198s-1.864-3.198-3.464-3.198H295.242z
		 M306.433,387.371c0,6.129-5.329,6.928-7.194,6.928h-3.996v7.994c0,0.532-0.533,0.799-1.6,0.799h-0.799
		c-1.066,0-1.6-0.267-1.6-0.799v-20.518c0-0.799,0.267-1.066,1.065-1.066h6.662C301.637,380.709,306.433,381.508,306.433,387.371"/>
	<path fill="#0055A1" d="M313.629,384.173v6.129h3.464c1.599,0,3.196-1.333,3.196-3.198s-1.332-2.931-3.196-2.931H313.629z
		 M324.553,386.571c0,2.665-1.6,4.263-3.73,5.329l0,0c1.065,0.267,1.865,1.599,2.664,3.464l2.665,6.928
		c0,0.266,0.268,0.532,0.268,0.532c0,0.267-0.533,0.533-1.865,0.533h-1.066c-0.799,0-1.599-0.268-1.599-0.533l-2.398-6.395
		c-0.799-1.599-1.599-2.398-3.729-2.398h-1.865v8.261c0,0.532-0.532,0.799-1.599,0.799h-0.8c-1.065,0-1.599-0.267-1.599-0.799
		v-20.518c0-0.799,0.266-1.066,1.065-1.066h5.861C322.155,380.709,324.553,382.574,324.553,386.571"/>
	<path fill="#0055A1" d="M342.939,382.042v0.799c0,1.066-0.267,1.332-0.8,1.332h-8.526v5.862h7.729c0.532,0,0.799,0.533,0.799,1.333
		v0.799c0,1.066-0.267,1.333-0.799,1.333h-7.729v6.128h8.526c0.533,0,0.8,0.533,0.8,1.332v0.8c0,1.065-0.267,1.332-0.8,1.332
		h-11.725c-0.8,0-1.065-0.267-1.065-1.064v-20.251c0-0.799,0.267-1.066,1.065-1.066h11.725
		C342.673,380.709,342.939,381.242,342.939,382.042"/>
	<path fill="#0055A1" d="M350.933,384.173v15.455h3.729c3.73,0,5.862-2.397,5.862-7.728c0-5.33-2.397-7.728-5.862-7.728
		L350.933,384.173L350.933,384.173z M365.055,391.9c0,7.728-3.997,11.191-10.125,11.191h-6.929c-0.8,0-1.065-0.267-1.065-1.064
		v-20.251c0-0.799,0.267-1.066,1.065-1.066h6.929C361.058,380.709,365.055,384.173,365.055,391.9"/>
	<path fill="#0055A1" d="M381.044,382.574c0,0.799-0.801,2.398-1.6,2.398c-0.533,0-1.599-1.066-3.729-1.066
		c-2.398,0-3.464,1.066-3.464,2.398c0,1.865,1.864,2.665,3.729,3.464c2.664,1.066,5.861,2.398,5.861,6.662
		c0,4.795-3.464,6.662-7.194,6.662c-4.529,0-7.194-1.599-7.194-2.664c0-0.8,1.065-2.397,1.6-2.397s2.132,1.599,5.063,1.599
		c1.865,0,3.464-0.8,3.464-2.931c0-2.132-2.397-2.931-4.797-3.997c-2.396-1.066-4.796-2.398-4.796-6.395
		c0-4.263,3.464-6.395,7.461-6.395C378.379,380.442,381.044,381.508,381.044,382.574"/>
	<path fill="#0055A1" d="M398.896,382.042v0.799c0,1.066-0.266,1.332-0.799,1.332h-8.527v5.862h7.729c0.532,0,0.8,0.533,0.8,1.333
		v0.799c0,1.066-0.268,1.333-0.8,1.333h-7.729v6.128h8.527c0.533,0,0.799,0.533,0.799,1.332v0.8c0,1.065-0.266,1.332-0.799,1.332
		h-11.726c-0.8,0-1.064-0.267-1.064-1.064v-20.251c0-0.799,0.267-1.066,1.064-1.066h11.726
		C398.631,380.709,398.896,381.242,398.896,382.042"/>
	<path fill="#0055A1" d="M407.156,384.173v15.455h3.73c3.729,0,5.861-2.397,5.861-7.728c0-5.33-2.397-7.728-5.861-7.728
		L407.156,384.173L407.156,384.173z M421.28,391.9c0,7.728-3.997,11.191-10.126,11.191h-6.928c-0.8,0-1.066-0.267-1.066-1.064
		v-20.251c0-0.799,0.268-1.066,1.066-1.066h6.928C417.282,380.709,421.28,384.173,421.28,391.9"/>
	<path fill="#0055A1" d="M443.396,381.508v14.389c0,4.796-3.464,7.728-9.06,7.728c-5.862,0-9.062-2.932-9.062-7.728v-14.389
		c0-0.533,0.533-0.799,1.601-0.799h0.799c1.065,0,1.599,0.267,1.599,0.799v14.123c0,2.398,2.132,4.264,5.063,4.264
		c2.931,0,5.063-1.864,5.063-4.264v-14.123c0-0.533,0.533-0.799,1.599-0.799h0.801C442.863,380.709,443.396,380.976,443.396,381.508
		"/>
	<path fill="#0055A1" d="M472.973,381.242c0,0.266,0,0.266,0,0.533l-7.194,20.784c-0.267,0.533-0.8,0.533-1.599,0.533h-1.332
		c-0.8,0-1.601-0.267-1.601-0.533l-7.193-20.784c0-0.267,0-0.267,0-0.533c0-0.267,0.533-0.533,1.865-0.533h0.8
		c0.799,0,1.599,0.267,1.599,0.799l4.796,15.188l0.268,1.333l0,0l0.267-1.333l5.063-15.188c0.266-0.533,0.799-0.799,1.599-0.799
		h0.799C472.441,380.709,472.973,380.976,472.973,381.242"/>
	<path fill="#0055A1" d="M480.167,381.508v18.12h7.729c0.533,0,0.8,0.533,0.8,1.332v0.8c0,1.065-0.267,1.332-0.8,1.332H476.97
		c-0.799,0-1.065-0.267-1.065-1.064v-20.519c0-0.533,0.532-0.799,1.6-0.799h0.799C479.635,380.709,480.167,380.976,480.167,381.508"
		/>
	<path fill="#0055A1" d="M503.35,374.314c0,0.267-0.268,0.533-3.197,3.73c-0.267,0.267-0.8,0.799-2.132,0.799
		c-0.8,0-0.8,0-0.8-0.533c0-0.267,0.533-1.066,2.132-3.73c0.267-0.533,1.333-0.8,2.398-0.8
		C502.552,374.047,503.35,374.047,503.35,374.314 M498.821,385.505c0,0.799-0.267,1.333-0.533,2.132l-2.397,7.194h5.862
		l-2.398-7.194C499.087,386.838,499.087,386.305,498.821,385.505L498.821,385.505z M501.219,381.242l7.193,20.784
		c0,0.267,0,0.267,0,0.531c0,0.268-0.531,0.533-1.599,0.533h-1.065c-0.8,0-1.599-0.267-1.599-0.533l-1.599-4.528h-8.262
		l-1.599,4.528c-0.267,0.533-0.8,0.533-1.333,0.533h-0.799c-1.066,0-1.865-0.267-1.865-0.533c0-0.266,0-0.266,0-0.531l7.194-20.784
		c0.267-0.533,0.8-0.533,1.599-0.533h1.333C500.42,380.709,500.951,380.709,501.219,381.242"/>
	<path fill="#0055A1" d="M515.608,384.173v15.455h3.73c3.729,0,5.861-2.397,5.861-7.728c0-5.33-2.397-7.728-5.861-7.728
		L515.608,384.173L515.608,384.173z M529.464,391.9c0,7.728-3.997,11.191-10.125,11.191h-6.93c-0.799,0-1.064-0.267-1.064-1.064
		v-20.251c0-0.799,0.267-1.066,1.064-1.066h6.93C525.733,380.709,529.464,384.173,529.464,391.9"/>
	<path fill="#0055A1" d="M547.317,380.709c1.332,0,1.865,0.267,1.865,0.533c0,0.266,0,0.533-0.268,0.799l-6.66,10.392v10.125
		c0,0.533-0.533,0.801-1.601,0.801h-0.799c-1.066,0-1.599-0.268-1.599-0.801v-10.392l-6.662-10.125
		c-0.268-0.267-0.268-0.533-0.268-0.799c0-0.267,0.533-0.533,1.865-0.533h1.066c0.799,0,1.332,0,1.864,0.533l4.529,7.194l4.53-7.194
		c0.267-0.533,1.064-0.533,1.865-0.533H547.317z"/>
	<path fill="#0055A1" d="M571.299,382.574c0,0.799-0.8,2.398-1.6,2.398c-0.533,0-1.599-1.066-3.729-1.066
		c-2.398,0-3.464,1.066-3.464,2.398c0,1.865,1.864,2.665,3.729,3.464c2.664,1.066,5.862,2.398,5.862,6.662
		c0,4.795-3.464,6.662-7.194,6.662c-4.53,0-7.195-1.599-7.195-2.664c0-0.8,1.066-2.397,1.601-2.397c0.532,0,2.131,1.599,5.063,1.599
		c1.865,0,3.464-0.8,3.464-2.931c0-2.132-2.397-2.931-4.796-3.997c-2.397-1.066-4.797-2.398-4.797-6.395
		c0-4.263,3.464-6.395,7.461-6.395C568.367,380.442,571.299,381.508,571.299,382.574"/>
	<path fill="#0055A1" d="M579.825,384.173v6.129h3.464c1.6,0,3.197-1.333,3.197-3.198s-1.332-2.931-3.197-2.931H579.825z
		 M590.484,386.571c0,2.665-1.599,4.263-3.729,5.329l0,0c1.064,0.267,1.864,1.599,2.665,3.464l2.663,6.928
		c0,0.266,0.268,0.532,0.268,0.532c0,0.267-0.533,0.533-1.865,0.533h-1.064c-0.801,0-1.6-0.268-1.6-0.533l-2.397-6.395
		c-0.8-1.599-1.6-2.398-3.73-2.398h-1.865v8.261c0,0.532-0.532,0.799-1.599,0.799h-0.8c-1.065,0-1.599-0.267-1.599-0.799v-20.518
		c0-0.799,0.267-1.066,1.064-1.066h5.862C588.086,380.709,590.484,382.574,590.484,386.571"/>
	<path fill="#0055A1" d="M138.295,416.415v6.396h3.73c1.332,0,3.197-0.532,3.197-3.197c0-2.664-1.865-3.197-3.465-3.197
		L138.295,416.415L138.295,416.415z M149.487,419.612c0,6.129-5.33,6.929-7.195,6.929h-3.996v7.994c0,0.532-0.532,0.799-1.6,0.799
		h-0.799c-1.066,0-1.6-0.267-1.6-0.799v-20.52c0-0.799,0.268-1.064,1.065-1.064h6.662
		C144.956,412.951,149.487,413.751,149.487,419.612"/>
	<path fill="#0055A1" d="M156.948,416.415v6.129h3.464c1.6,0,3.197-1.332,3.197-3.197c0-1.864-1.332-2.932-3.197-2.932H156.948z
		 M167.872,418.813c0,2.664-1.599,4.265-3.729,5.329l0,0c1.064,0.268,1.864,1.6,2.664,3.465l2.665,6.929
		c0,0.266,0.267,0.532,0.267,0.532c0,0.267-0.533,0.532-1.865,0.532h-1.065c-0.8,0-1.6-0.267-1.6-0.532l-2.664-6.396
		c-0.8-1.599-1.599-2.397-3.729-2.397h-1.865v8.261c0,0.532-0.533,0.799-1.599,0.799h-0.801c-1.064,0-1.599-0.267-1.599-0.799
		v-20.52c0-0.799,0.267-1.064,1.065-1.064h5.861C165.207,412.951,167.872,414.816,167.872,418.813"/>
	<path fill="#0055A1" d="M185.991,414.283v0.8c0,1.065-0.267,1.332-0.799,1.332h-8.527v5.596h7.729c0.532,0,0.8,0.533,0.8,1.332v0.8
		c0,1.066-0.268,1.332-0.8,1.332h-7.729v6.129h8.527c0.532,0,0.799,0.533,0.799,1.332v0.801c0,1.064-0.267,1.332-0.799,1.332
		h-11.726c-0.8,0-1.064-0.268-1.064-1.065v-19.985c0-0.799,0.266-1.064,1.064-1.064h11.726
		C185.725,412.951,185.991,413.218,185.991,414.283"/>
	<path fill="#0055A1" d="M201.713,413.751v20.784c0,0.532-0.532,1.064-1.599,1.064h-0.8c-1.065,0-1.6-0.267-1.6-1.064v-20.784
		c0-0.533,0.533-1.066,1.6-1.066h0.8C201.18,412.951,201.713,413.218,201.713,413.751"/>
	<path fill="#0055A1" d="M224.896,413.751v20.784c0,0.532-0.533,0.799-1.6,0.799h-1.065c-0.799,0-1.332,0-1.865-0.799l-8.793-13.59
		l-0.8-1.333v14.655c0,0.532-0.532,0.8-1.6,0.8h-0.8c-1.064,0-1.599-0.268-1.599-0.8v-20.783c0-0.533,0.533-0.801,1.599-0.801h1.066
		c0.8,0,1.332,0,1.865,0.801l8.525,13.057l0.8,1.599v-14.389c0-0.533,0.533-0.8,1.6-0.8h0.8
		C224.363,412.951,224.896,413.218,224.896,413.751"/>
	<path fill="#0055A1" d="M246.745,413.484c0,0.267,0,0.267,0,0.531l-7.194,20.784c-0.267,0.533-0.8,0.533-1.599,0.533h-1.332
		c-0.8,0-1.6-0.267-1.6-0.533l-7.194-20.784c0-0.266,0-0.266,0-0.531c0-0.267,0.533-0.533,1.865-0.533h0.8
		c0.799,0,1.599,0.267,1.599,0.8l4.797,15.188l0.267,1.064l0,0l0.267-1.332l5.063-15.188c0.267-0.533,0.8-0.801,1.6-0.801h1.065
		C246.212,412.951,246.745,413.218,246.745,413.484"/>
	<path fill="#0055A1" d="M263.532,414.283v0.8c0,1.065-0.267,1.332-0.799,1.332h-8.527v5.596h7.729c0.532,0,0.8,0.533,0.8,1.332v0.8
		c0,1.066-0.268,1.332-0.8,1.332h-7.729v6.129h8.527c0.532,0,0.799,0.533,0.799,1.332v0.801c0,1.064-0.267,1.332-0.799,1.332
		h-11.726c-0.8,0-1.065-0.268-1.065-1.065v-19.985c0-0.799,0.267-1.064,1.065-1.064h11.726
		C263.266,412.951,263.532,413.218,263.532,414.283"/>
	<path fill="#0055A1" d="M279.254,414.816c0,0.8-0.8,2.397-1.599,2.397c-0.533,0-1.599-1.065-3.73-1.065
		c-2.397,0-3.464,1.065-3.464,2.397c0,1.865,1.865,2.665,3.73,3.464c2.664,1.066,5.862,2.398,5.862,6.662
		c0,4.796-3.466,6.661-7.195,6.661c-4.529,0-7.194-1.599-7.194-2.664c0-0.8,1.066-2.397,1.6-2.397c0.532,0,2.132,1.599,5.063,1.599
		c1.865,0,3.464-0.8,3.464-2.931c0-2.133-2.397-2.933-4.797-3.997c-2.396-1.066-4.796-2.398-4.796-6.396
		c0-4.264,3.464-6.396,7.461-6.396C276.589,412.685,279.254,413.751,279.254,414.816"/>
	<path fill="#0055A1" d="M298.173,414.283v0.8c0,1.065-0.267,1.332-0.8,1.332h-5.596v18.12c0,0.532-0.532,0.799-1.599,0.799h-0.8
		c-1.065,0-1.6-0.267-1.6-0.799v-18.12h-5.596c-0.532,0-0.8-0.533-0.8-1.332v-0.8c0-1.065,0.268-1.332,0.8-1.332h15.188
		C297.906,412.951,298.173,413.218,298.173,414.283"/>
	<path fill="#0055A1" d="M307.766,406.556c0,0.268-0.268,0.533-3.197,3.73c-0.267,0.267-0.8,0.8-2.132,0.8c-0.8,0-0.8,0-0.8-0.533
		c0-0.267,0.532-1.064,1.864-3.729c0.268-0.533,1.332-0.799,2.398-0.799C306.967,406.289,307.766,406.289,307.766,406.556
		 M305.367,413.751v20.784c0,0.532-0.533,1.064-1.599,1.064h-0.8c-1.065,0-1.6-0.267-1.6-1.064v-20.784
		c0-0.533,0.533-1.066,1.6-1.066h0.8C304.834,412.951,305.367,413.218,305.367,413.751"/>
	<path fill="#0055A1" d="M326.685,414.816c0,0.8-1.066,2.665-1.865,2.665c-0.267,0-1.865-1.066-4.797-1.066
		c-4.264,0-6.395,2.665-6.395,7.994s1.864,7.994,6.128,7.994c3.197,0,4.797-1.333,5.33-1.333c0.799,0,1.599,1.864,1.599,2.397
		c0,1.6-3.997,2.665-6.929,2.665c-7.194,0-10.393-3.729-10.393-11.458c0-7.728,3.464-11.458,10.658-11.458
		C322.954,412.685,326.685,413.751,326.685,414.816"/>
	<path fill="#0055A1" d="M334.412,413.751v20.784c0,0.532-0.532,1.064-1.6,1.064h-0.799c-1.066,0-1.6-0.267-1.6-1.064v-20.784
		c0-0.533,0.532-1.066,1.6-1.066h0.799C333.88,412.951,334.412,413.218,334.412,413.751"/>
	<path fill="#0055A1" d="M353.065,414.283v0.8c0,1.065-0.267,1.332-0.8,1.332h-8.526v5.596h7.729c0.531,0,0.799,0.533,0.799,1.332
		v0.8c0,1.066-0.268,1.332-0.799,1.332h-7.729v6.129h8.526c0.533,0,0.8,0.533,0.8,1.332v0.801c0,1.064-0.267,1.332-0.8,1.332H340.54
		c-0.799,0-1.064-0.268-1.064-1.065v-19.985c0-0.799,0.267-1.064,1.064-1.064h11.726
		C352.799,412.951,353.065,413.218,353.065,414.283"/>
	<path fill="#0055A1" d="M141.492,449.989c0,0.8-0.267,1.333-0.533,1.864l-2.397,7.195h5.861l-2.396-7.195
		C142.026,451.322,141.759,450.789,141.492,449.989L141.492,449.989z M143.891,445.727l7.193,20.784c0,0.268,0,0.268,0,0.532
		c0,0.267-0.532,0.533-1.599,0.533h-1.066c-0.799,0-1.599-0.268-1.599-0.533l-1.599-4.529h-8.262l-1.064,4.529
		c-0.268,0.533-0.8,0.533-1.332,0.533h-0.8c-1.065,0-1.865-0.268-1.865-0.533s0-0.266,0-0.532l7.193-20.784
		c0.268-0.532,0.801-0.532,1.6-0.532h1.333C143.091,445.193,143.891,445.193,143.891,445.727"/>
	<path fill="#0055A1" d="M166.007,445.992v20.785c0,0.531-0.532,1.064-1.599,1.064h-0.8c-1.065,0-1.6-0.267-1.6-1.064v-20.785
		c0-0.532,0.533-1.065,1.6-1.065h0.8C165.474,445.193,166.007,445.46,166.007,445.992"/>
	<path fill="#0055A1" d="M188.923,445.992v20.785c0,0.531-0.532,0.799-1.599,0.799h-1.066c-0.799,0-1.332,0-1.864-0.799
		l-8.793-13.59l-0.801-1.334v14.656c0,0.532-0.531,0.799-1.599,0.799h-0.799c-1.066,0-1.6-0.267-1.6-0.799v-20.519
		c0-0.532,0.532-0.799,1.6-0.799h1.064c0.801,0,1.332,0,1.865,0.799l8.526,13.058l0.8,1.6v-14.656c0-0.532,0.533-0.799,1.599-0.799
		h0.801C188.656,445.193,188.923,445.46,188.923,445.992"/>
	<path fill="#0055A1" d="M206.509,446.525v0.8c0,1.064-0.266,1.332-0.799,1.332h-7.461v5.596h7.194c0.533,0,0.8,0.533,0.8,1.332
		v1.066c0,1.064-0.267,1.332-0.8,1.332h-7.194v8.794c0,0.531-0.533,0.799-1.599,0.799h-0.8c-1.065,0-1.6-0.268-1.6-0.799v-20.52
		c0-0.799,0.268-1.064,1.065-1.064h10.659C206.243,445.193,206.509,445.46,206.509,446.525"/>
	<path fill="#0055A1" d="M213.704,456.385c0,5.063,2.132,7.994,5.862,7.994c3.729,0,5.861-2.665,5.861-7.994
		c0-5.063-2.132-7.994-5.861-7.994C215.57,448.391,213.704,451.322,213.704,456.385 M229.692,456.385
		c0,7.461-3.73,11.458-10.125,11.458c-6.662,0-10.126-3.997-10.126-11.458s3.729-11.458,10.126-11.458
		C225.961,444.927,229.692,448.924,229.692,456.385"/>
	<path fill="#0055A1" d="M237.952,448.657v6.129h3.464c1.6,0,3.197-1.332,3.197-3.197c0-1.866-1.332-2.932-3.197-2.932H237.952z
		 M248.877,451.056c0,2.664-1.599,4.265-3.729,5.329l0,0c1.064,0.268,1.865,1.6,2.665,3.464l2.664,6.662
		c0,0.268,0.267,0.532,0.267,0.532c0,0.267-0.533,0.533-1.865,0.533h-1.064c-0.8,0-1.601-0.268-1.601-0.533l-2.396-6.395
		c-0.8-1.6-1.6-2.398-3.73-2.398h-1.864v8.261c0,0.532-0.533,0.799-1.6,0.799h-0.8c-1.065,0-1.599-0.267-1.599-0.799v-20.519
		c0-0.799,0.267-1.065,1.064-1.065h5.862C246.212,445.193,248.877,447.059,248.877,451.056"/>
	<path fill="#0055A1" d="M275.79,445.992v20.785c0,0.531-0.533,0.799-1.599,0.799h-0.8c-1.065,0-1.6-0.268-1.6-0.799v-14.656l0,0
		l-5.329,9.326c-0.267,0.267-0.532,0.533-1.065,0.533h-1.065c-0.533,0-0.8-0.268-1.065-0.533l-5.329-9.326l0,0v14.922
		c0,0.533-0.532,0.8-1.6,0.8h-0.799c-1.065,0-1.6-0.267-1.6-0.8v-21.051c0-0.532,0.533-0.799,1.6-0.799h1.6
		c0.799,0,1.599,0.267,1.864,0.799l5.597,9.858l0.531,1.066l0.533-1.066l5.597-9.858c0.267-0.532,0.8-0.799,1.864-0.799h1.332
		C275.257,445.193,275.79,445.46,275.79,445.992"/>
	<path fill="#0055A1" d="M288.047,449.989c0,0.8-0.267,1.333-0.531,1.864l-2.398,7.195h5.862l-2.398-7.195
		C288.314,451.322,288.047,450.789,288.047,449.989L288.047,449.989z M290.446,445.727l7.194,20.784c0,0.268,0,0.268,0,0.532
		c0,0.267-0.532,0.533-1.6,0.533h-1.064c-0.8,0-1.601-0.268-1.601-0.533l-1.599-4.529h-8.26l-1.6,4.529
		c-0.267,0.533-0.8,0.533-1.333,0.533h-0.799c-1.065,0-1.865-0.268-1.865-0.533s0-0.266,0-0.532l7.194-20.784
		c0.267-0.532,0.799-0.532,1.599-0.532h1.332C289.646,445.193,290.179,445.193,290.446,445.727"/>
	<path fill="#0055A1" d="M315.227,446.525v0.8c0,1.064-0.267,1.332-0.8,1.332h-5.597v18.12c0,0.531-0.532,0.799-1.599,0.799h-0.8
		c-1.065,0-1.6-0.268-1.6-0.799v-18.12h-5.596c-0.532,0-0.799-0.533-0.799-1.332v-0.8c0-1.065,0.267-1.332,0.799-1.332h15.188
		C314.961,445.193,315.227,445.46,315.227,446.525"/>
	<path fill="#0055A1" d="M322.155,445.992v20.785c0,0.531-0.533,1.064-1.599,1.064h-0.8c-1.065,0-1.6-0.267-1.6-1.064v-20.785
		c0-0.532,0.533-1.065,1.6-1.065h0.8C321.621,445.193,322.155,445.46,322.155,445.992"/>
	<path fill="#0055A1" d="M343.205,447.592v0.267l-11.725,16.255h10.925c0.533,0,0.8,0.533,0.8,1.332v0.8
		c0,1.064-0.267,1.332-0.8,1.332h-15.721c-0.533,0-1.066-1.6-1.066-2.398v-0.267l11.726-16.254h-9.859
		c-0.532,0-0.799-0.533-0.799-1.332v-0.8c0-1.065,0.267-1.332,0.799-1.332h14.655C342.673,445.193,343.205,446.792,343.205,447.592"
		/>
	<path fill="#0055A1" d="M358.927,438.798c0,0.268-0.268,0.533-3.198,3.73c-0.267,0.267-0.799,0.8-2.132,0.8
		c-0.799,0-0.799,0-0.799-0.533c0-0.267,0.532-1.064,2.132-3.729c0.267-0.533,1.332-0.8,2.396-0.8
		C358.128,438.531,358.927,438.531,358.927,438.798 M354.397,449.989c0,0.8-0.267,1.333-0.533,1.864l-2.396,7.195h5.86l-2.396-7.195
		C354.663,451.322,354.663,450.789,354.397,449.989L354.397,449.989z M356.796,445.727l7.193,20.784c0,0.268,0,0.268,0,0.532
		c0,0.267-0.533,0.533-1.599,0.533h-1.066c-0.799,0-1.599-0.268-1.599-0.533l-1.599-4.529h-8.262l-1.599,4.529
		c-0.268,0.533-0.799,0.533-1.332,0.533h-0.533c-1.064,0-1.865-0.268-1.865-0.533s0-0.266,0-0.532l7.194-20.784
		c0.267-0.532,0.8-0.532,1.6-0.532h1.332C355.995,445.193,356.529,445.193,356.796,445.727"/>
	<path fill="#0055A1" d="M383.176,447.059c0,0.8-1.066,2.664-1.865,2.664c-0.267,0-1.865-1.064-4.797-1.064
		c-4.263,0-6.396,2.665-6.396,7.994c0,5.328,1.865,7.993,6.128,7.993c3.198,0,4.798-1.333,5.33-1.333c0.8,0,1.6,1.865,1.6,2.398
		c0,1.599-3.997,2.665-6.93,2.665c-7.193,0-10.392-3.73-10.392-11.458s3.464-11.458,10.658-11.458
		C379.445,444.927,383.176,445.992,383.176,447.059"/>
	<path fill="#0055A1" d="M390.903,445.992v20.785c0,0.531-0.533,1.064-1.6,1.064h-0.799c-1.066,0-1.6-0.267-1.6-1.064v-20.785
		c0-0.532,0.532-1.065,1.6-1.065h0.799C390.369,445.193,390.903,445.46,390.903,445.992"/>
	<path fill="#0055A1" d="M414.085,445.992v14.39c0,4.796-3.465,7.729-9.061,7.729c-5.862,0-9.06-2.933-9.06-7.729v-14.39
		c0-0.532,0.532-0.799,1.599-0.799h0.8c1.065,0,1.6,0.267,1.6,0.799v14.123c0,2.397,2.132,4.264,5.063,4.264
		c2.932,0,5.063-1.865,5.063-4.264v-14.123c0-0.532,0.531-0.799,1.599-0.799h0.799C413.552,445.193,414.085,445.46,414.085,445.992"
		/>
</g>
</svg>
