<svg width="245" height="58" viewBox="0 0 245 58" fill="none" xmlns="http://www.w3.org/2000/svg">
<path d="M27.0434 17.7136C26.9817 20.6928 26.1014 23.6293 24.4265 26.4323L24.365 26.5365L24.3148 26.426C23.906 25.5222 23.1317 24.3621 21.7764 23.9764C20.6581 23.654 19.5465 23.9494 18.5286 24.8229L18.4601 24.8825L18.4272 24.7987C18.1783 24.1392 17.5409 22.8659 16.2211 22.1811C15.4933 21.7664 14.5876 21.7179 14.2415 21.7179C13.86 21.7179 12.9896 21.7289 12.164 22.1895C10.8206 22.8693 10.1683 24.1089 9.91163 24.7521L9.87708 24.8329L9.81071 24.7768C9.30994 24.3483 8.49915 23.8343 7.49205 23.8343C7.11216 23.8343 6.72599 23.9072 6.34652 24.0534C5.2847 24.4576 4.51703 25.4761 4.05967 26.2599L4.0051 26.3516L3.94915 26.262C2.31904 23.528 1.42733 20.6198 1.30296 17.6195C1.24024 16.1038 1.20737 14.5105 1.20737 12.8878C1.20737 7.8784 1.50644 3.83237 1.63584 2.32452L1.64167 2.26708H26.8233L26.825 2.32802C26.9042 3.95935 27.0837 8.32012 27.0837 13.5177C27.0837 14.9689 27.0722 16.3784 27.0434 17.7136ZM27.9973 1.63382L27.9665 1.06982H0.541854L0.487871 1.60799C0.480408 1.68089 -0.257511 9.24164 0.095651 17.6705C0.478822 26.8209 7.57494 33.869 14.0088 36.5493L14.2325 36.6396L14.4599 36.5536C21.0075 34.0376 28.0661 26.5858 28.2494 17.7376C28.4209 9.39162 28.0023 1.70793 27.9973 1.63382Z" fill="white"/>
<path d="M14.146 4.64105C14.2814 4.64737 15.5158 4.58011 15.5158 4.58011C14.7601 8.25355 14.8531 9.83013 14.8531 9.83013C17.9292 10.0151 20.7468 9.21435 20.7468 9.21435C20.679 9.85327 20.7439 11.8696 20.7439 11.8696C17.9497 11.1018 14.8638 11.2551 14.8638 11.2551V16.0282C20.1075 16.1627 22.3077 15.4229 22.3077 15.4229C22.2287 16.3588 22.3134 18.0878 22.3134 18.0878C18.833 17.2556 14.8638 17.4698 14.8638 17.4698V22.5903H14.8914H15.9244H15.9477L15.9456 18.5417C20.7129 18.4072 23.4904 19.5695 23.4904 19.5695C23.1987 15.821 23.4904 13.9433 23.4904 13.9433C20.4335 15.1202 15.9456 14.9709 15.9456 14.9709L15.954 12.3375C18.7569 12.2283 21.9239 13.3548 21.9239 13.3548C21.6472 10.2947 21.9239 7.73906 21.9239 7.73906C19.3666 8.73106 15.9964 8.77303 15.9964 8.77303C15.9709 7.50367 16.9003 3.40316 16.9003 3.40316C16.0641 3.48521 14.146 3.56363 14.146 3.56363C14.146 3.56363 12.2279 3.48521 11.3917 3.40316C11.3917 3.40316 12.321 7.50367 12.2956 8.77303C12.2956 8.77303 8.92542 8.73106 6.36813 7.73906C6.36813 7.73906 6.64472 10.2947 6.36813 13.3548C6.36813 13.3548 9.5351 12.2283 12.338 12.3375L12.3464 14.9709C12.3464 14.9709 7.85847 15.1202 4.80157 13.9433C4.80157 13.9433 5.09341 15.821 4.80157 19.5695C4.80157 19.5695 7.57903 18.4072 12.3464 18.5417L12.3443 22.5903H12.3679H13.4038H13.4282V17.4698C13.4282 17.4698 9.45889 17.2556 5.97861 18.0878C5.97861 18.0878 6.06324 16.3588 5.98423 15.4229C5.98423 15.4229 8.18449 16.1627 13.4282 16.0282V11.2551C13.4282 11.2551 10.3424 11.1018 7.54802 11.8696C7.54802 11.8696 7.6129 9.85327 7.54516 9.21435C7.54516 9.21435 10.3628 10.0151 13.4388 9.83013C13.4388 9.83013 13.5319 8.25355 12.7762 4.58011C12.7762 4.58011 14.0107 4.64737 14.146 4.64105Z" fill="white"/>
<g clip-path="url(#ugjh544f)">
<path d="M126.063 14.6435H36.5389V13.355H126.063V14.6435Z" fill="white"/>
<path fill-rule="evenodd" clip-rule="evenodd" d="M45.1662 9.59918V3.89333L42.2317 9.59918H41.0729L38.2258 3.99255V9.59918H36.9236V1.04006H38.3312L41.6883 7.89165L45.1662 1.04006H46.467V9.59918H45.1662ZM50.5823 9.59918H49.2814V1.04006H50.5823V9.59918ZM61.8366 1.04006V9.59784H60.7851L54.6976 3.22962V9.59784H53.3987V1.04006H54.4602L60.5371 7.42102V1.04006H61.8366ZM65.9519 9.59918H64.651V1.04006H65.9519V9.59918ZM68.6262 7.596C69.005 8.03109 69.8411 8.51044 70.5212 8.51044C71.3126 8.51044 71.8854 8.05456 71.8854 7.26951C71.8854 5.7879 68.3329 5.99573 68.3329 3.38113C68.3329 1.85796 69.5924 0.932129 70.8259 0.932129C71.6253 0.932129 72.2328 1.22577 72.5675 1.52008V3.1847C72.2661 2.73687 71.6173 2.1382 70.8359 2.1382C70.1085 2.1382 69.6444 2.63028 69.6444 3.32549C69.6444 4.92911 73.2289 4.65625 73.2289 7.21588C73.2289 8.81748 71.8974 9.75405 70.4792 9.75405C69.6864 9.75405 69.0263 9.44566 68.6262 9.08766V7.596ZM73.8237 1.04006H80.67V2.26021H77.8976V9.59784H76.5961V2.26021H73.8237V1.04006ZM86.0001 9.59918H82.0235V1.04006H86.0001V2.25887H83.3257V4.70922H85.2193V5.9193H83.3257V8.39177H86.0001V9.59918ZM90.9068 6.33295C90.6694 6.3658 90.4181 6.38591 90.16 6.38591H89.7146V9.59918H88.4125V1.04006H90.2014C92.1623 1.04006 93.4405 1.84657 93.4405 3.70896C93.4405 4.69849 92.9738 5.43058 92.227 5.87439L95.5942 9.59918H93.7652L90.9068 6.33295ZM89.7146 5.18789H90.2121C91.3402 5.18789 92.0423 4.72128 92.0423 3.6855C92.0423 2.69665 91.3589 2.25887 90.2461 2.25887H89.7146V5.18789ZM96.2123 7.596C96.5903 8.03109 97.4238 8.51044 98.1065 8.51044C98.8987 8.51044 99.4721 8.05456 99.4721 7.26951C99.4721 5.7879 95.9189 5.99573 95.9189 3.38113C95.9189 1.85796 97.1751 0.932129 98.4119 0.932129C99.212 0.932129 99.8188 1.22577 100.155 1.52008V3.1847C99.8521 2.73687 99.2 2.1382 98.4226 2.1382C97.6945 2.1382 97.2311 2.63028 97.2311 3.32549C97.2311 4.92911 100.815 4.65625 100.815 7.21588C100.815 8.81748 99.4834 9.75405 98.0645 9.75405C97.2724 9.75405 96.6123 9.44566 96.2123 9.08766V7.596ZM101.358 1.04006H108.203V2.26021H105.429V9.59784H104.13V2.26021H101.358V1.04006ZM112.436 8.09612L114.981 1.04006H116.379L113.076 9.59784H111.711L108.634 1.04006H110.032L112.436 8.09612ZM121.721 0.985762C124.222 1.00789 126.007 2.60882 126.063 5.18789C126.107 7.71667 124.306 9.71986 121.653 9.76343C118.632 9.72991 117.333 7.39823 117.363 5.36219C117.353 3.59902 118.666 0.995818 121.721 0.985762ZM121.675 8.55535C123.584 8.52049 124.754 7.06034 124.72 5.24487C124.675 3.38113 123.516 2.20658 121.721 2.19518C119.522 2.20658 118.704 4.0978 118.716 5.36219C118.688 6.83307 119.5 8.53256 121.675 8.55535ZM36.7849 52.1481C37.1623 52.5818 37.9965 53.0632 38.6786 53.0632C39.4713 53.0632 40.0441 52.6046 40.0441 51.8195C40.0441 50.34 36.4909 50.5458 36.4909 47.9318C36.4909 46.408 37.7471 45.4822 38.9839 45.4822C39.7841 45.4822 40.3908 45.7778 40.7262 46.0708V47.7394C40.4241 47.2909 39.772 46.6916 38.9913 46.6916C38.2665 46.6916 37.8031 47.1803 37.8031 47.8789C37.8031 49.4792 41.387 49.2056 41.387 51.7659C41.387 53.3662 40.0554 54.3027 38.6372 54.3027C37.8444 54.3027 37.185 53.9997 36.7849 53.6397V52.1481ZM48.0473 54.1512H43.5513V45.5921H44.8521V52.9418H48.0473V54.1512Z" fill="white"/>
<path fill-rule="evenodd" clip-rule="evenodd" d="M53.1399 45.5409C55.641 45.5603 57.4286 47.1606 57.4799 49.743C57.5259 52.2684 55.7276 54.2736 53.0719 54.3165C50.0502 54.283 48.752 51.9547 48.7826 49.9166C48.772 48.1534 50.0842 45.5476 53.1399 45.5409ZM53.0933 53.1078C55.0029 53.0769 56.1724 51.6168 56.1377 49.7966C56.0957 47.9336 54.9349 46.757 53.1399 46.7469C50.9396 46.757 50.1255 48.6542 50.1382 49.9166C50.1068 51.3882 50.9183 53.0863 53.0933 53.1078ZM62.0519 52.6512L64.5983 45.5938H65.9938L62.6893 54.1529H61.3271L58.2507 45.5938H59.6469L62.0519 52.6512ZM71.5386 54.1529H67.5654V45.5938H71.5386V46.8133H68.8642V49.2657H70.7612V50.4717H68.8642V52.9435H71.5386V54.1529ZM82.2848 45.5938V54.1529H81.2313L75.1478 47.7814V54.1529H73.8469V45.5938H74.9064L80.9826 51.9768V45.5938H82.2848ZM84.7425 52.1498C85.1206 52.5835 85.954 53.0649 86.6361 53.0649C87.4289 53.0649 88.0017 52.6063 88.0017 51.8213C88.0017 50.3417 84.4485 50.5475 84.4485 47.9336C84.4485 46.4097 85.7053 45.4839 86.9408 45.4839C87.741 45.4839 88.3477 45.7795 88.6851 46.0725V47.7411C88.3817 47.2926 87.7303 46.6933 86.9522 46.6933C86.2247 46.6933 85.76 47.182 85.76 47.8806C85.76 49.4809 89.3452 49.2073 89.3452 51.7676C89.3452 53.3679 88.0137 54.3045 86.5941 54.3045C85.8027 54.3045 85.1426 54.0014 84.7425 53.6414V52.1498ZM92.8097 45.5938V49.8073L96.5269 45.5938H98.2605L94.3152 49.8945L98.2271 54.1529H96.4736L92.8097 50.0695V54.1529H91.5135V45.5938H92.8097ZM103.911 54.1529H99.9394V45.5938H103.911V46.8133H101.237V49.2657H103.133V50.4717H101.237V52.9435H103.911V54.1529ZM105.374 56.0261C106.133 55.3744 106.502 54.4573 106.513 53.38V45.5938H107.822V53.3679C107.822 54.9038 107.249 56.1447 106.208 57.0055L105.374 56.0261ZM116.813 50.8847C116.572 50.9189 116.324 50.941 116.064 50.941H115.622V54.1529H114.32V45.5938H116.108C118.067 45.5938 119.348 46.3976 119.348 48.2607C119.348 49.2536 118.879 49.9823 118.134 50.4288L121.503 54.1529H119.672L116.813 50.8847ZM115.622 49.743H116.119C117.244 49.743 117.949 49.273 117.949 48.2399C117.949 47.2471 117.267 46.8133 116.151 46.8133H115.622V49.743ZM126.292 54.1529H122.313V45.5938H126.292V46.8133H123.61V49.2657H125.508V50.4717H123.61V52.9435H126.292V54.1529ZM129.787 50.941V54.1529H128.484V45.5938H130.275C132.233 45.5938 133.516 46.3976 133.516 48.2607C133.516 49.993 132.059 50.941 130.23 50.941H129.787ZM129.787 49.743H130.286C131.41 49.743 132.116 49.273 132.116 48.2399C132.116 47.2471 131.433 46.8133 130.32 46.8133H129.787V49.743ZM136.329 45.5938V49.69C136.329 51.4532 137.117 53.1292 139.083 53.1292C140.704 53.1292 141.818 51.8333 141.818 49.6967V45.5938H143.121V49.69C143.121 52.4655 141.454 54.3165 139.083 54.3165C136.261 54.3165 135.03 52.3898 135.03 49.6967V45.5938H136.329ZM145.505 54.1529V45.5938H146.714C148.62 45.5938 150.069 46.1932 150.069 47.9235C150.069 48.7722 149.618 49.2657 148.827 49.5043C150.054 49.7316 150.865 50.396 150.865 51.6476C150.865 53.752 148.864 54.1529 147.116 54.1529H145.505ZM147.162 49.1322C148.168 49.1322 148.75 48.783 148.75 47.9919C148.75 47.0198 147.798 46.8032 146.987 46.8032H146.804V49.1322H147.162ZM147.323 50.3417H146.804V52.9435H147.278C148.633 52.9435 149.511 52.7692 149.511 51.6697C149.511 50.5696 148.576 50.3417 147.323 50.3417ZM157.522 54.1529H153.03V45.5938H154.327V52.9435H157.522V54.1529ZM160.31 54.1529H159.007V45.5938H160.31V54.1529ZM164.534 45.5938V49.8073L168.25 45.5938H169.978L166.038 49.8945L169.95 54.1529H168.193L164.534 50.0695V54.1529H163.228V45.5938H164.534ZM174.52 54.1529H173.217V50.7553L170.414 45.5938H171.907L173.945 49.4581L175.891 45.5938H177.385L174.52 50.7781V54.1529ZM37.801 20.247V28.8758H36.4908V20.247H37.801ZM48.0519 20.247V28.8758H46.9937L40.8575 22.4526V28.8758H39.548V20.247H40.6174L46.7417 26.6796V20.247H48.0519ZM52.8659 27.3614L55.4323 20.247H56.8405L53.5107 28.8758H52.1345L49.0347 20.247H50.4429L52.8659 27.3614ZM61.7752 28.8758H57.7679V20.247H61.7752V21.4765H59.0781V23.947H60.9877V25.1651H59.0781V27.6577H61.7752V28.8758ZM62.9754 26.8545C63.3574 27.2943 64.1982 27.7763 64.8856 27.7763C65.6824 27.7763 66.2618 27.3164 66.2618 26.5267C66.2618 25.033 62.6806 25.2415 62.6806 22.6075C62.6806 21.0709 63.9462 20.137 65.191 20.137C65.9991 20.137 66.6106 20.4334 66.9493 20.7297V22.4097C66.6439 21.9592 65.9878 21.3558 65.2024 21.3558C64.4709 21.3558 64.0022 21.8493 64.0022 22.5518C64.0022 24.1662 67.6147 23.8907 67.6147 26.4711C67.6147 28.0841 66.2718 29.0287 64.8423 29.0287C64.0442 29.0287 63.3794 28.721 62.9754 28.3596V26.8545ZM68.0514 20.247H74.9511V21.4765H72.1574V28.8758H70.8472V21.4765H68.0514V20.247ZM77.1347 20.247V28.8758H75.8252V20.247H77.1347ZM76.3486 19.8521L75.6492 19.1817L77.2221 17.5459L77.9542 18.3155L76.3486 19.8521ZM78.4556 24.6046C78.4449 22.8274 79.7658 20.137 82.8449 20.137C84.0564 20.137 84.9732 20.4783 85.574 20.961V22.5197C84.9512 21.8942 84.1871 21.3558 82.8449 21.3558C80.6273 21.3558 79.8091 23.3322 79.8191 24.6046C79.8191 25.9998 80.6273 27.7991 82.8449 27.7991C83.9897 27.7991 84.9625 27.3929 85.574 26.8116V28.194C84.8972 28.6988 84.1438 29.0173 82.8449 29.0173C79.7658 29.0059 78.4556 26.5582 78.4556 24.6154V24.6046ZM88.193 20.247V28.8758H86.8835V20.247H88.193ZM91.2495 20.247V28.8758H89.9399V20.247H91.2495ZM90.464 19.8521L89.7659 19.1817L91.3368 17.5459L92.0689 18.3155L90.464 19.8521ZM94.4806 27.5363C94.5139 28.5125 94.3179 29.5221 93.7065 30.0718H92.3963C92.9637 29.3136 93.1711 28.5346 93.1711 27.5363H94.4806Z" fill="white"/>
<path fill-rule="evenodd" clip-rule="evenodd" d="M100.443 25.5801C100.202 25.6137 99.9516 25.6344 99.6889 25.6344H99.2421V28.8739H97.9313V20.245H99.7329C101.708 20.245 102.997 21.0576 102.997 22.9354C102.997 23.9336 102.527 24.6697 101.775 25.1182L105.17 28.8739H103.325L100.443 25.5801ZM99.2421 24.427H99.7442C100.88 24.427 101.589 23.9557 101.589 22.9126C101.589 21.9143 100.9 21.4746 99.7755 21.4746H99.2421V24.427ZM109.558 28.8739H105.552V20.245H109.558V21.4746H106.86V23.945H108.772V25.1631H106.86V27.6557H109.558V28.8739ZM110.465 24.6027C110.465 22.8254 111.751 20.1351 114.963 20.1351C115.923 20.1351 116.983 20.3442 117.583 20.717V22.2757C116.961 21.7487 116.109 21.3539 114.963 21.3539C112.625 21.3539 111.829 23.3302 111.829 24.6027C111.829 25.9978 112.637 27.7972 114.852 27.7972C115.683 27.7972 116.164 27.6658 116.709 27.4466V24.9211H118.02V28.0613C117.212 28.6204 116.153 29.0153 114.852 29.0153C111.773 29.0039 110.465 26.5563 110.465 24.6134V24.6027ZM120.858 20.245V28.8739H119.546V20.245H120.858ZM126.568 20.1914C129.088 20.2115 130.889 21.8265 130.944 24.427C130.989 26.9739 129.176 28.9945 126.501 29.0374C123.456 29.0039 122.144 26.6555 122.177 24.6027C122.166 22.8254 123.489 20.2008 126.568 20.1914ZM126.523 27.8193C128.443 27.7858 129.625 26.3162 129.592 24.4833C129.547 22.6055 128.38 21.4209 126.568 21.4095C124.35 21.4209 123.532 23.3302 123.541 24.6027C123.511 26.085 124.33 27.7972 126.523 27.8193ZM140.771 20.245V28.8739H139.711L133.574 22.4507V28.8739H132.266V20.245H133.334L139.458 26.6776V20.245H140.771ZM145.376 19.8502L144.679 19.1797L146.25 17.5439L146.98 18.3136L145.376 19.8502ZM146.318 20.245L149.491 28.8739H148.085L147.069 25.9415H144.187L143.161 28.8739H141.752L145.038 20.245H146.318ZM144.613 24.7234H146.642L145.638 21.8158L144.613 24.7234ZM155.005 28.8739H150.474V20.245H151.785V27.6557H155.005V28.8739ZM164.569 20.245V28.8739H163.509L157.373 22.4507V28.8739H156.065V20.245H157.136L163.257 26.6776V20.245H164.569ZM170.267 28.8739H166.262V20.245H170.267V21.4746H167.571V23.945H169.482V25.1631H167.571V27.6557H170.267V28.8739ZM177.277 20.245H178.586V28.8739H177.277V25.1745H172.92V28.8739H171.609V20.245H172.92V23.9557H177.277V20.245ZM184.295 20.1914C186.818 20.2115 188.62 21.8265 188.674 24.427C188.715 26.9739 186.904 28.9945 184.228 29.0374C181.183 29.0039 179.875 26.6555 179.909 24.6027C179.897 22.8254 181.215 20.2008 184.295 20.1914ZM184.251 27.8193C186.173 27.7858 187.353 26.3162 187.32 24.4833C187.278 22.6055 186.107 21.4209 184.295 21.4095C182.08 21.4209 181.26 23.3302 181.271 24.6027C181.238 26.085 182.057 27.7972 184.251 27.8193ZM195.781 25.5801C195.54 25.6137 195.289 25.6344 195.026 25.6344H194.58V28.8739H193.269V20.245H195.069C197.048 20.245 198.333 21.0576 198.333 22.9354C198.333 23.9336 197.866 24.6697 197.111 25.1182L200.506 28.8739H198.664L195.781 25.5801ZM194.58 24.427H195.08C196.218 24.427 196.926 23.9557 196.926 22.9126C196.926 21.9143 196.239 21.4746 195.113 21.4746H194.58V24.427Z" fill="white"/>
<path fill-rule="evenodd" clip-rule="evenodd" d="M204.907 20.1919C207.426 20.212 209.231 21.827 209.283 24.4275C209.328 26.9744 207.515 28.995 204.84 29.038C201.795 29.0044 200.485 26.656 200.517 24.6032C200.505 22.8259 201.828 20.2013 204.907 20.1919ZM204.862 27.8198C206.786 27.7863 207.964 26.3168 207.931 24.4839C207.886 22.606 206.719 21.4214 204.907 21.41C202.691 21.4214 201.873 23.3308 201.884 24.6032C201.85 26.0855 202.669 27.7977 204.862 27.8198ZM210.18 20.2455H215.771V21.2223L211.795 27.6562H215.738V28.8744H210.168V27.8962L214.089 21.4751H210.18V20.2455ZM220.146 27.3599L222.712 20.2455H224.119L220.791 28.8744H219.417L216.315 20.2455H217.724L220.146 27.3599ZM229.064 20.1919C231.588 20.212 233.388 21.827 233.444 24.4275C233.486 26.9744 231.676 28.995 228.999 29.038C225.955 29.0044 224.644 26.656 224.678 24.6032C224.666 22.8259 225.986 20.2013 229.064 20.1919ZM229.02 27.8198C230.944 27.7863 232.121 26.3168 232.089 24.4839C232.048 22.606 230.877 21.4214 229.064 21.41C226.849 21.4214 226.031 23.3308 226.042 24.6032C226.009 26.0855 226.827 27.7977 229.02 27.8198ZM233.804 30.7616C234.566 30.1039 234.939 29.1814 234.949 28.094V20.2455H236.271V28.0826C236.271 29.6306 235.693 30.8822 234.644 31.7504L233.804 30.7616ZM241.818 20.2455L244.993 28.8744H243.586L242.57 25.942H239.688L238.662 28.8744H237.253L240.539 20.2455H241.818ZM240.113 24.7239H242.144L241.139 21.8163L240.113 24.7239ZM40.7076 32.9015L43.87 41.4881H42.4678L41.457 38.5712H38.5893L37.5678 41.4881H36.1663L39.4374 32.9015H40.7076ZM39.0133 37.3591H41.0343L40.0342 34.4636L39.0133 37.3591ZM49.4095 32.9015V41.4881H48.1067V32.9015H49.4095ZM59.6123 32.9015V41.4881H58.5575L52.452 35.0978V41.4881H51.1484V32.9015H52.2126L58.3081 39.3033V32.9015H59.6123ZM61.2952 41.4881V32.9015H65.2832V34.1257H62.5994V36.6049H64.4897V37.8183H62.5994V41.4881H61.2952Z" fill="white"/>
<path fill-rule="evenodd" clip-rule="evenodd" d="M70.1285 32.8464C72.6375 32.8692 74.4311 34.4748 74.4858 37.0633C74.5291 39.5974 72.7255 41.6086 70.0625 41.6522C67.032 41.6187 65.7278 39.281 65.7612 37.2389C65.7498 35.469 67.064 32.8578 70.1285 32.8464ZM70.0851 40.4388C71.9974 40.4066 73.1703 38.9424 73.1382 37.1182C73.0949 35.2498 71.9314 34.0705 70.1285 34.0598C67.9228 34.0705 67.108 35.9712 67.118 37.2389C67.086 38.7125 67.9008 40.418 70.0851 40.4388ZM78.2983 38.211C78.059 38.2432 77.8089 38.2653 77.5482 38.2653H77.1035V41.488H75.7993V32.9014H77.5916C79.5585 32.9014 80.84 33.7105 80.84 35.5783C80.84 36.5725 80.374 37.3046 79.6239 37.7518L83.003 41.488H81.1661L78.2983 38.211ZM77.1035 37.0633H77.6029C78.7324 37.0633 79.4398 36.594 79.4398 35.5562C79.4398 34.562 78.7551 34.1255 77.6362 34.1255H77.1035V37.0633ZM91.7049 41.488V35.7633L88.7605 41.488H87.599L84.7406 35.8619V41.488H83.4371V32.9014H84.8499L88.2178 39.773L91.7049 32.9014H93.0091V41.488H91.7049ZM98.5279 32.9014L101.69 41.488H100.288L99.2767 38.571H96.4089L95.3881 41.488H93.9866L97.2557 32.9014H98.5279ZM96.833 37.3589H98.854L97.8538 34.4634L96.833 37.3589ZM101.797 32.9014H108.665V34.1255H105.882V41.488H104.579V34.1255H101.797V32.9014ZM110.838 32.9014V41.488H109.532V32.9014H110.838ZM112.151 32.9014H117.714V33.8741L113.758 40.2752H117.681V41.488H112.141V40.5159L116.04 34.1255H112.151V32.9014ZM121.865 32.5085L121.17 31.8421L122.733 30.2144L123.46 30.9786L121.865 32.5085ZM122.799 32.9014L125.96 41.488H124.559L123.549 38.571H120.679L119.658 41.488H118.257L121.527 32.9014H122.799ZM121.103 37.3589H123.125L122.124 34.4634L121.103 37.3589ZM126.515 37.2389C126.503 35.469 127.817 32.7921 130.881 32.7921C132.088 32.7921 133 33.1313 133.597 33.612V35.1633C132.978 34.5405 132.219 34.0048 130.881 34.0048C128.676 34.0048 127.862 35.9712 127.873 37.2389C127.873 38.626 128.676 40.418 130.881 40.418C132.022 40.418 132.989 40.0131 133.597 39.4352V40.8108C132.925 41.313 132.174 41.6294 130.881 41.6294C127.817 41.6187 126.515 39.1824 126.515 37.2496V37.2389ZM136.205 32.9014V41.488H134.902V32.9014H136.205ZM141.876 41.488H137.89V32.9014H141.876V34.1255H139.192V36.5826H141.095V37.7953H139.192V40.2752H141.876V41.488Z" fill="white"/>
</g>
<defs>
<clipPath id="ugjh544f">
<rect width="216" height="56.3527" fill="white" transform="translate(29 0.82373)"/>
</clipPath>
</defs>
</svg>
