<svg width="184" height="36" viewBox="0 0 184 36" fill="none" xmlns="http://www.w3.org/2000/svg">
   <text fill="#003078" xml:space="preserve" style="white-space: pre" font-family="Source Sans Pro" font-size="24" font-weight="bold" letter-spacing="0em">
      <tspan x="36" y="27.032">mirri.gov.sk</tspan>
   </text>
   <rect x="36" y="36" width="1" height="43" transform="rotate(-90 36 36)" fill="#D1D2D4"/>
   <rect x="79" y="35.9507" width="0.950783" height="42.6966" transform="rotate(-90 79 35.9507)" fill="#0055A2"/>
   <rect x="121.697" y="35.9507" width="0.950783" height="42.6966" transform="rotate(-90 121.697 35.9507)" fill="#ED1C24"/>
   <g clip-path="url(#ghf5sty8)">
      <path d="M14.2432 35.9282C8.38351 33.089 -0.00012207 27.4554 -0.00012207 16.3105C-0.00012207 5.16619 0.529836 0.0978433 0.529836 0.0978433H27.9567C27.9567 0.0978433 28.4879 5.16619 28.4879 16.3105C28.4879 27.4554 20.1045 33.089 14.2432 35.9282Z" fill="#ED1C24"/>
      <path d="M15.4972 13.388C17.0842 13.4147 20.1801 13.4769 22.9364 12.5485C22.9364 12.5485 22.864 13.5422 22.864 14.697C22.864 15.8523 22.9364 16.8442 22.9364 16.8442C20.4087 15.994 17.2852 15.9763 15.4972 15.9988V22.1541H12.9913V15.9988C11.2025 15.9763 8.07936 15.994 5.55113 16.8442C5.55113 16.8442 5.62393 15.8523 5.62393 14.697C5.62393 13.5422 5.55113 12.5485 5.55113 12.5485C8.30716 13.4769 11.4038 13.4147 12.9913 13.388V9.5229C11.545 9.51047 9.46038 9.57972 7.10411 10.3726C7.10411 10.3726 7.17656 9.3804 7.17656 8.22441C7.17656 7.07019 7.10411 6.07756 7.10411 6.07756C9.4564 6.86864 11.538 6.93967 12.984 6.92724C12.9093 4.47985 12.2007 1.39409 12.2007 1.39409C12.2007 1.39409 13.6602 1.50729 14.2436 1.50729C14.8279 1.50729 16.2872 1.39409 16.2872 1.39409C16.2872 1.39409 15.5781 4.47985 15.5039 6.92724C16.9498 6.93967 19.0313 6.86864 21.3836 6.07756C21.3836 6.07756 21.3112 7.07019 21.3112 8.22441C21.3112 9.3804 21.3836 10.3726 21.3836 10.3726C19.0279 9.57972 16.9431 9.51047 15.4972 9.5229V13.388Z" fill="white"/>
      <path fill-rule="evenodd" clip-rule="evenodd" d="M25.657 26.4604C22.6928 31.2026 17.9607 34.1274 14.2432 35.9282C10.5267 34.1274 5.79478 31.2025 2.83063 26.4603C3.5937 25.1108 4.79574 23.6514 6.42561 23.6514C8.83309 23.6514 9.71161 25.6033 9.71161 25.6033C9.71161 25.6033 11.2921 21.4881 14.2436 21.4881C17.1957 21.4881 18.7762 25.6033 18.7762 25.6033C18.7762 25.6033 19.6544 23.6514 22.0625 23.6514C23.692 23.6514 24.894 25.1109 25.657 26.4604Z" fill="#1E51A4"/>
   </g>
   <defs>
      <clipPath id="ghf5sty8">
         <rect width="29" height="36" fill="white"/>
      </clipPath>
   </defs>
</svg>