<svg version="1.1" id="Layer_1" xmlns="http://www.w3.org/2000/svg" xmlns:xlink="http://www.w3.org/1999/xlink" x="0px" y="0px"
	 viewBox="0 0 553.9584961 126.9964905" style="enable-background:new 0 0 553.9584961 126.9964905;" xml:space="preserve">
<style type="text/css">
	.st0{fill:#004C96;}
	.st1{fill:#D4D5D5;}
	.st2{fill:#E50B14;}
	.st3{clip-path:url(#SVGID_2_);fill:#FFFFFF;}
	.st4{clip-path:url(#SVGID_2_);fill-rule:evenodd;clip-rule:evenodd;fill:#004C96;}
</style>
<polygon class="st0" points="102.7337875,19.5282993 102.7337875,6.5913 96.0428925,19.5282993 93.400795,19.5282993 
	86.907692,6.8133998 86.907692,19.5282993 83.9447937,19.5282993 83.9447937,0.1234909 87.1546936,0.1234909 94.8075943,15.6522999 
	102.7337875,0.1234909 105.6957932,0.1234909 105.6957932,19.5282993 "/>
<rect x="112.1151886" y="0.1234909" class="st0" width="2.9619" height="19.404808"/>
<polygon class="st0" points="140.7290039,0.123 140.7290039,19.5277996 138.3329926,19.5277996 124.4580002,5.0848999 
	124.4580002,19.5277996 121.4960938,19.5277996 121.4960938,0.123 123.9150009,0.123 137.7660828,14.5913 137.7660828,0.123 "/>
<rect x="147.1459961" y="0.1234909" class="st0" width="2.96279" height="19.404808"/>
<path class="st0" d="M156.207489,14.9853001c0.8641968,0.9877996,2.7651062,2.0741901,4.3197937,2.0741901
	c1.8032074,0,3.1113129-1.0370903,3.1113129-2.8138905c0-3.3584003-8.0980988-2.8892002-8.0980988-8.8155003
	c0-3.4559999,2.8641968-5.5537,5.6791992-5.5537c1.8265991,0,3.2098999,0.667,3.973587,1.3329999V4.9863
	c-0.6908875-1.0122001-2.1718903-2.3701-3.9496918-2.3701c-1.6542969,0-2.7163086,1.1112909-2.7163086,2.6908998
	c0,3.6293912,8.1724091,3.0121999,8.1724091,8.8143902c0,3.6299095-3.0362091,5.7530003-6.2700958,5.7530003
	c-1.8032074,0-3.3090057-0.6923904-4.2221069-1.5063915V14.9853001z"/>
<polygon class="st0" points="168.0570831,0.123 183.6605835,0.123 183.6605835,2.8880999 177.3402863,2.8880999 
	177.3402863,19.5277996 174.3773956,19.5277996 174.3773956,2.8880999 168.0570831,2.8880999 "/>
<polygon class="st0" points="195.8070831,19.5282993 186.7464905,19.5282993 186.7464905,0.1234909 195.8070831,0.1234909 
	195.8070831,2.8871999 189.7093964,2.8871999 189.7093964,8.4433002 194.0296936,8.4433002 194.0296936,11.1835995 
	189.7093964,11.1835995 189.7093964,16.7884903 195.8070831,16.7884903 "/>
<path class="st0" d="M206.9906921,12.1219997c-0.5429993,0.0733004-1.1103973,0.1231003-1.7031097,0.1231003h-1.0126953v7.2831993
	h-2.9628906V0.123h4.0741882c4.4687042,0,7.3818207,1.8271999,7.3818207,6.0492997
	c0,2.2460999-1.0615234,3.8999-2.7646179,4.9130998l7.6777039,8.4428997h-4.1728058L206.9906921,12.1219997z M204.2748871,9.5292997
	h1.1356964c2.5674133,0,4.1728973-1.0611,4.1728973-3.4073c0-2.2455997-1.5556946-3.2347999-4.0986938-3.2347999h-1.2098999
	V9.5292997z"/>
<path class="st0" d="M219.0873871,14.9853001c0.8641968,0.9877996,2.7646179,2.0741901,4.3202972,2.0741901
	c1.8027039,0,3.1113129-1.0370903,3.1113129-2.8138905c0-3.3584003-8.0986023-2.8892002-8.0986023-8.8155003
	c0-3.4559999,2.8641968-5.5537,5.6786957-5.5537c1.8271027,0,3.2089996,0.667,3.9745941,1.3329999V4.9863
	c-0.691391-1.0122001-2.1728973-2.3701-3.9501953-2.3701c-1.6542969,0-2.7158051,1.1112909-2.7158051,2.6908998
	c0,3.6293912,8.1717987,3.0121999,8.1717987,8.8143902c0,3.6299095-3.0361023,5.7530003-6.2704773,5.7530003
	c-1.8027191,0-3.3086243-0.6923904-4.2216187-1.5063915V14.9853001z"/>
<polygon class="st0" points="230.8138885,0.123 246.4164886,0.123 246.4164886,2.8880999 240.0970917,2.8880999 
	240.0970917,19.5277996 237.1341858,19.5277996 237.1341858,2.8880999 230.8138885,2.8880999 "/>
<polygon class="st0" points="256.0697937,16.1210995 261.8714905,0.123 265.0560913,0.123 257.5257874,19.5277996 
	254.4154816,19.5277996 247.4037933,0.123 250.5873871,0.123 "/>
<path class="st0" d="M277.2269897,0c5.7030945,0.0493,9.7763977,3.6782,9.8993835,9.5292997
	c0.0996399,5.7279997-3.9989929,10.2708998-10.0477905,10.3685999c-6.8876953-0.0737-9.8505859-5.3569002-9.7763977-9.9727001
	C267.2767944,5.9252,270.2640991,0.0239,277.2269897,0 M277.1273804,17.1581993
	c4.3457031-0.0742989,7.0117188-3.3832998,6.9385071-7.5049C283.9662781,5.4301,281.3246765,2.7651,277.2269897,2.7402
	c-5.0126953,0.0249-6.8641968,4.3197999-6.8388977,7.1849995C270.3128967,13.2582998,272.1654968,17.1078987,277.1273804,17.1581993
	"/>
<path class="st0" d="M83.6244888,115.9847946c0.8642044,0.9883041,2.7651062,2.0742035,4.3198013,2.0742035
	c1.8031998,0,3.1123047-1.0371017,3.1123047-2.8143997c0-3.357399-8.0991058-2.8887024-8.0991058-8.8144989
	c0-3.4550018,2.8642044-5.5547028,5.6791992-5.5547028c1.8266068,0,3.2089996,0.6679993,3.9736023,1.3339996v3.7773972
	c-0.6909027-1.0116959-2.1727982-2.3710938-3.9496994-2.3710938c-1.6542969,0-2.716301,1.1112976-2.716301,2.6913986
	c0,3.6288986,8.1724014,3.0116959,8.1724014,8.8143921c0,3.6289063-3.0362015,5.7519989-6.2701035,5.7519989
	c-1.8031998,0-3.3089981-0.691391-4.2220993-1.5058899V115.9847946z"/>
<polygon class="st0" points="109.2992935,120.5277939 99.0541916,120.5277939 99.0541916,101.1234894 102.0160904,101.1234894 
	102.0160904,117.7875977 109.2992935,117.7875977 "/>
<path class="st0" d="M120.9042892,101.0003967c5.7031021,0.0489044,9.775795,3.677803,9.8989029,9.5292969
	c0.0991058,5.7266006-3.9990005,10.2695999-10.047905,10.3692017c-6.8881989-0.0741959-9.8509979-5.3574066-9.7762909-9.9746017
	C110.9530945,106.9242935,113.941391,101.0238953,120.9042892,101.0003967 M120.8041916,118.1585999
	c4.3460999-0.0742035,7.0121994-3.3828049,6.9369965-7.505806c-0.0981903-4.2235947-2.7397995-6.8896942-6.8368988-6.9120941
	c-5.012291,0.0223999-6.8652878,4.3202972-6.8388977,7.1835938
	C113.9901886,114.2583008,115.8421936,118.1078949,120.8041916,118.1585999"/>
<polygon class="st0" points="141.2220917,117.1214905 147.0238953,101.1234894 150.2079926,101.1234894 142.6781921,120.5277939 
	139.5677948,120.5277939 132.5560913,101.1234894 135.7411957,101.1234894 "/>
<polygon class="st0" points="162.8480835,120.5277939 153.7870941,120.5277939 153.7870941,101.1234894 162.8480835,101.1234894 
	162.8480835,103.8871994 156.75,103.8871994 156.75,109.4437943 161.0711823,109.4437943 161.0711823,112.1839981 
	156.75,112.1839981 156.75,117.7875977 162.8480835,117.7875977 "/>
<polygon class="st0" points="187.3392944,101.1234894 187.3392944,120.5277939 184.9427948,120.5277939 171.0692902,106.0843964 
	171.0692902,120.5277939 168.1073914,120.5277939 168.1073914,101.1234894 170.5252838,101.1234894 184.3763885,115.5902939 
	184.3763885,101.1234894 "/>
<path class="st0" d="M192.9418945,115.9847946c0.8641968,0.9883041,2.7645874,2.0742035,4.3202972,2.0742035
	c1.8027039,0,3.1102905-1.0371017,3.1102905-2.8143997c0-3.357399-8.0975952-2.8887024-8.0975952-8.8144989
	c0-3.4550018,2.8641968-5.5547028,5.6786957-5.5547028c1.8271027,0,3.2098999,0.6679993,3.9746094,1.3339996v3.7773972
	c-0.6914063-1.0116959-2.1728973-2.3710938-3.9501953-2.3710938c-1.6543121,0-2.7158051,1.1112976-2.7158051,2.6913986
	c0,3.6288986,8.171814,3.0116959,8.171814,8.8143921c0,3.6289063-3.0361176,5.7519989-6.2705231,5.7519989
	c-1.8026886,0-3.3085938-0.691391-4.2215881-1.5058899V115.9847946z"/>
<polygon class="st0" points="211.3343811,101.1234894 211.3343811,110.6781998 219.8031921,101.1234894 223.7533875,101.1234894 
	214.7660828,110.8753967 223.679184,120.5277939 219.679184,120.5277939 211.3343811,111.2709961 211.3343811,120.5277939 
	208.3724823,120.5277939 208.3724823,101.1234894 "/>
<polygon class="st0" points="236.6390839,120.5277939 227.579483,120.5277939 227.579483,101.1234894 236.6390839,101.1234894 
	236.6390839,103.8871994 230.5414886,103.8871994 230.5414886,109.4437943 234.8617859,109.4437943 234.8617859,112.1839981 
	230.5414886,112.1839981 230.5414886,117.7875977 236.6390839,117.7875977 "/>
<path class="st0" d="M239.9720917,124.7738953c1.7276001-1.4794998,2.5673981-3.5546951,2.5917969-5.9981003v-17.6523056h2.9873047
	v17.6269073c0,3.4804993-1.308609,6.2949982-3.6787109,8.2460938L239.9720917,124.7738953z"/>
<path class="st0" d="M266.0423889,113.1214905c-0.5429077,0.0743103-1.1112976,0.1231079-1.7030945,0.1231079h-1.0126953v7.2831955
	h-2.9619141v-19.4043045h4.0732117c4.4687805,0,7.381897,1.82621,7.381897,6.0488052
	c0,2.2461014-1.0614929,3.9004059-2.7655945,4.9121017l7.6786804,8.4433975h-4.1728821L266.0423889,113.1214905z
	 M263.3265991,110.5296936h1.1357727c2.5673218,0,4.172821-1.0625,4.172821-3.4082031
	c0-2.2460938-1.5556946-3.2342911-4.0986023-3.2342911h-1.2099915V110.5296936z"/>
<polygon class="st0" points="287.6440125,120.5277939 278.5834961,120.5277939 278.5834961,101.1234894 287.6440125,101.1234894 
	287.6440125,103.8871994 281.5462952,103.8871994 281.5462952,109.4437943 285.8666992,109.4437943 285.8666992,112.1839981 
	281.5462952,112.1839981 281.5462952,117.7875977 287.6440125,117.7875977 "/>
<path class="st0" d="M295.6175842,113.2445984v7.2831955h-2.9618835v-19.4043045h4.0733032
	c4.468689,0,7.3817749,1.82621,7.3817749,6.0488052c0,3.9258041-3.3085938,6.0723038-7.4804993,6.0723038H295.6175842z
	 M295.6175842,110.5296936h1.1358032c2.5674133,0,4.1727905-1.0625,4.1727905-3.4082031
	c0-2.2460938-1.555603-3.2342911-4.0986023-3.2342911h-1.2099915V110.5296936z"/>
<path class="st0" d="M310.5296936,101.1234894v9.2832108c0,3.9979935,1.8017883,7.8007889,6.2705994,7.8007889
	c3.7030945,0,6.2460022-2.9364929,6.2460022-7.7773895v-9.3066101h2.9619751v9.2832108
	c0,6.294899-3.8007813,10.4921951-9.2079773,10.4921951c-6.4190063,0-9.2333984-4.3711014-9.2333984-10.4687958v-9.3066101
	H310.5296936z"/>
<path class="st0" d="M331.4408875,120.5277939v-19.4043045h2.7645874c4.3448181,0,7.6533203,1.3574066,7.6533203,5.2832108
	c0,1.9257889-1.0371094,3.0370941-2.8388062,3.5800934c2.7900085,0.517601,4.6416016,2.023407,4.6416016,4.8633041
	c0,4.7656021-4.5674133,5.6776962-8.5429993,5.6776962H331.4408875z M335.2181702,109.1468964
	c2.295929,0,3.6289063-0.7910004,3.6289063-2.5917969c0-2.1972046-2.1727905-2.6913986-4.0253906-2.6913986h-0.4189148v5.2831955
	H335.2181702z M335.5882874,111.8871994h-1.1855164v5.9003983h1.0869141c3.085907,0,5.085907-0.3945999,5.085907-2.8887024
	C340.575592,112.4046936,338.4515991,111.8871994,335.5882874,111.8871994"/>
<polygon class="st0" points="358.8431702,120.5277939 348.5970764,120.5277939 348.5970764,101.1234894 351.5599976,101.1234894 
	351.5599976,117.7875977 358.8431702,117.7875977 "/>
<rect x="362.2260132" y="101.1234894" class="st0" width="2.9628844" height="19.4043064"/>
<polygon class="st0" points="374.8168945,101.1234894 374.8168945,110.6781998 383.2855835,101.1234894 387.2357788,101.1234894 
	378.2484741,110.8753967 387.1615906,120.5277939 383.1615906,120.5277939 374.8168945,111.2709961 374.8168945,120.5277939 
	371.8548889,120.5277939 371.8548889,101.1234894 "/>
<polygon class="st0" points="397.5804749,120.5277939 394.6175842,120.5277939 394.6175842,112.8246994 388.2230835,101.1234894 
	391.6302795,101.1234894 396.2718811,109.8871994 400.715271,101.1234894 404.1224976,101.1234894 397.5804749,112.8753967 "/>
<rect x="83.9150009" y="28.2684917" class="st1" width="67.3280869" height="2.9629083"/>
<rect x="151.2118835" y="28.2684917" class="st0" width="67.328598" height="2.9629083"/>
<rect x="218.5082855" y="28.2684917" class="st2" width="67.3281021" height="2.9629083"/>
<path class="st2" d="M32.2621918,80.8080978C18.989193,74.4125977,0,61.7220993,0,36.6170998
	C0,11.5130997,1.2001938,0.0961,1.2001938,0.0961H63.324192c0,0,1.2030983,11.4169998,1.2030983,36.5209999
	C64.5272903,61.7220993,45.5379982,74.4125977,32.2621918,80.8080978"/>
<g>
	<defs>
		<path id="SVGID_1_" d="M32.2621918,0.0957H1.2010937C1.2010937,0.0957,0,11.5127001,0,36.6175995
			c0,25.1035004,18.989193,37.7958908,32.2621918,44.1904984c13.2758064-6.3946075,32.2636032-19.086998,32.2636032-44.1904984
			c0-25.1049004-1.2006035-36.5219002-1.2006035-36.5219002H32.2621918z"/>
	</defs>
	<clipPath id="SVGID_2_">
		<use xlink:href="#SVGID_1_"  style="overflow:visible;"/>
	</clipPath>
	<path class="st3" d="M35.1024933,30.0340996c3.5942001,0.0601006,10.6068993,0.2001991,16.8500977-1.8910999
		c0,0-0.1640968,2.2383003-0.1640968,4.8398991c0,2.6020012,0.1640968,4.8363991,0.1640968,4.8363991
		c-5.7250977-1.9149971-12.8002968-1.9550972-16.8500977-1.9042969v13.8651962h-5.6763V35.9150009
		c-4.0517006-0.0508003-11.1259003-0.0107002-16.8525009,1.9042969c0,0,0.165-2.2343979,0.165-4.8363991
		c0-2.6015987-0.165-4.8398991-0.165-4.8398991c6.2426996,2.0912991,13.2568007,1.9512005,16.8525009,1.8910999v-8.7070007
		c-3.2758999-0.0277996-7.9974995,0.1279011-13.3348999,1.9141006c0,0,0.1639996-2.2348995,0.1639996-4.8388996
		c0-2.6001005-0.1639996-4.8364-0.1639996-4.8364c5.3281002,1.7821999,10.0429001,1.9424,13.3183002,1.9139996
		c-0.1689014-5.5127001-1.773901-12.4637995-1.773901-12.4637995s3.3057003,0.2558,4.6269989,0.2558
		c1.3237,0,4.6289024-0.2558,4.6289024-0.2558s-1.6060028,6.9510994-1.7740021,12.4637995
		c3.2749023,0.0284004,7.9897995-0.1317997,13.3179016-1.9139996c0,0-0.1641006,2.2362995-0.1641006,4.8364
		c0,2.6040001,0.1641006,4.8388996,0.1641006,4.8388996c-5.3358994-1.7861996-10.0581017-1.9419003-13.3330002-1.9141006V30.0340996
		"/>
	<path class="st4" d="M31.6795921,89.0443954L4.1747937,64.5248947c0,0,3.5135999-11.3715973,10.3797989-11.3715973
		c5.4532003,0,7.4429007,4.3969002,7.4429007,4.3969002s3.5800991-9.2700005,10.2651978-9.2700005
		c6.6870003,0,10.2670021,9.2700005,10.2670021,9.2700005s1.9888-4.3969002,7.4438972-4.3969002
		c6.8638,0,10.3789024,11.3715973,10.3789024,11.3715973L31.6795921,89.0443954"/>
</g>
<g>
	<path class="st0" d="M85.9164886,43.6400986v19.3768997h-2.9584885V43.6400986H85.9164886z"/>
	<path class="st0" d="M109.0692902,43.6400986v19.3768997h-2.391098L92.8216934,48.5942001v14.4227982h-2.9585037V43.6400986
		h2.4160995l13.8315048,14.4468002V43.6400986H109.0692902z"/>
	<path class="st0" d="M119.9486923,59.6180992l5.7938995-15.9780006h3.1807022l-7.5195007,19.3768997h-3.1079025
		l-7.0009995-19.3768997h3.180603L119.9486923,59.6180992z"/>
	<path class="st0" d="M140.0716858,63.0169983h-9.0477905V43.6400986h9.0477905v2.7616997h-6.089798v5.5474014h4.3144073v2.7372894
		h-4.3144073v5.5957108h6.089798V63.0169983z"/>
	<path class="st0" d="M142.7865906,58.4813995c0.8623047,0.9862976,2.7597046,2.0723,4.3125,2.0723
		c1.8016968,0,3.1094055-1.0352097,3.1094055-2.8106003c0-3.3535004-8.0870056-2.8857002-8.0870056-8.8017006
		c0-3.4527016,2.8583984-5.5479088,5.6699982-5.5479088c1.8242035,0,3.2041016,0.6651077,3.969696,1.3306084v3.7733917
		c-0.6894989-1.011692-2.1698914-2.367691-3.9442902-2.367691c-1.6534119,0-2.7128906,1.1094017-2.7128906,2.6865997
		c0,3.6264,8.161087,3.0078011,8.161087,8.8017006c0,3.6240005-3.0332031,5.7486-6.2637024,5.7486
		c-1.7998047,0-3.3016968-0.6954002-4.214798-1.5059013V58.4813995z"/>
	<path class="st0" d="M154.2533875,43.6400986h15.5825043v2.7616997h-6.3106079v16.6152h-2.9588928v-16.6152h-6.3130035V43.6400986z
		"/>
	<path class="st0" d="M172.9955902,42.7533989l-1.5776978-1.5064011l3.550293-3.6742973l1.6524048,1.7279968L172.9955902,42.7533989
		z M174.7709961,43.6400986v19.3768997h-2.9585114V43.6400986H174.7709961z"/>
	<path class="st0" d="M177.7552948,53.4272003c-0.023407-3.9922028,2.9589996-10.0337105,9.9101868-10.0337105
		c2.7383118,0,4.8105164,0.7647095,6.1660004,1.8486099v3.5014992c-1.406189-1.4048004-3.1327972-2.6138-6.1660004-2.6138
		c-5.003891,0-6.851593,4.4379997-6.8280945,7.2974014c0,3.1322899,1.8242035,7.1762924,6.8280945,7.1762924
		c2.5898132,0,4.7851105-0.914093,6.1660004-2.2197952v3.1054993c-1.531189,1.1332932-3.230484,1.8521004-6.1660004,1.8521004
		c-6.9511871-0.0253983-9.9101868-5.525898-9.9101868-9.889698V53.4272003z"/>
	<path class="st0" d="M199.7513885,43.6400986v19.3768997h-2.9589996V43.6400986H199.7513885z"/>
	<path class="st0" d="M204.8822937,42.7533989l-1.5762024-1.5064011l3.5469055-3.6742973l1.6542969,1.7279968
		L204.8822937,42.7533989z M206.6576843,43.6400986v19.3768997h-2.9609985V43.6400986H206.6576843z"/>
	<path class="st0" d="M213.9564819,60.0116997c0.0742035,2.192791-0.3690948,4.4603996-1.75,5.6967888h-2.9570007
		c1.2793121-1.7050934,1.7480011-3.4550896,1.7480011-5.6967888H213.9564819z"/>
	<path class="st0" d="M227.4212952,55.6239967c-0.5429077,0.0752029-1.1092987,0.1211014-1.7011108,0.1211014h-1.0117035v7.2719002
		h-2.9570923V43.6400986h4.0664063c4.4609985,0,7.3730927,1.8232002,7.3730927,6.0419998
		c0,2.2416992-1.0625,3.8945007-2.7617035,4.9028015l7.6660004,8.4320984h-4.1660004L227.4212952,55.6239967z
		 M224.7084808,53.0331993h1.1347046c2.5644989,0,4.1679993-1.0586014,4.1679993-3.4019012
		c0-2.2431984-1.5567017-3.2294998-4.0957031-3.2294998h-1.2070007V53.0331993z"/>
	<path class="st0" d="M248.0111847,63.0169983h-9.0468903V43.6400986h9.0468903v2.7616997h-6.0878906v5.5474014h4.3144989v2.7372894
		h-4.3144989v5.5957108h6.0878906V63.0169983z"/>
	<path class="st0" d="M250.0599976,53.4272003c0-3.9922028,2.9120941-10.0337105,10.1582031-10.0337105
		c2.171875,0,4.5605774,0.4683075,5.9179993,1.3062096v3.5014c-1.4043274-1.1845016-3.328125-2.0713005-5.9179993-2.0713005
		c-5.2754059,0-7.0762024,4.4379997-7.0762024,7.2974014c0,3.1322899,1.824295,7.1762924,6.8300781,7.1762924
		c1.875,0,2.9590149-0.2958946,4.1934204-0.789093v-5.6719093h2.9570007v7.0537071
		c-1.8242188,1.2564011-4.2148132,2.1450996-7.1504211,2.1450996c-6.9550781-0.0253983-9.9120789-5.525898-9.9120789-9.889698
		V53.4272003z"/>
	<path class="st0" d="M273.5365906,43.6400986v19.3768997h-2.9590149V43.6400986H273.5365906z"/>
	<path class="st0" d="M286.433075,43.5174904c5.6953125,0.0474091,9.765625,3.6739082,9.8867188,9.5157089
		c0.0995789,5.7196999-3.992218,10.2572899-10.0332031,10.358799c-6.8789063-0.0760994-9.8359985-5.3540001-9.7655945-9.964798
		C276.4974976,49.4349976,279.4798889,43.5394897,286.433075,43.5174904z M286.3353882,60.652298
		c4.3399048-0.0741997,7.0019836-3.3778992,6.9296875-7.4940987c-0.0995789-4.2168007-2.7382813-6.8769989-6.8320007-6.9034004
		c-5.0038757,0.0264015-6.8535767,4.3129997-6.828186,7.1724014
		C279.5287781,56.7557983,281.3783875,60.6034927,286.3353882,60.652298z"/>
	<path class="st0" d="M318.5169983,43.6400986v19.3768997h-2.3925171l-13.8574829-14.4227982v14.4227982h-2.9589233V43.6400986
		h2.4179382l13.8320618,14.4468002V43.6400986H318.5169983z"/>
	<path class="st0" d="M331.0462952,43.6400986l7.1757813,19.3768997h-3.1796875l-2.2929077-6.5825081h-6.5116882
		l-2.3184204,6.5825081h-3.1776733l7.4198914-19.3768997H331.0462952z M327.200592,53.6987h4.5859985l-2.2675781-6.5326996
		L327.200592,53.6987z M328.925293,42.7533989l-1.5782166-1.5064011l3.5527954-3.6742973l1.6504211,1.7279968L328.925293,42.7533989
		z"/>
	<path class="st0" d="M350.675293,63.0169983h-10.2325134V43.6400986h2.9609985v16.6421013h7.2715149V63.0169983z"/>
	<path class="st0" d="M372.2787781,43.6400986v19.3768997h-2.3945923l-13.8573914-14.4227982v14.4227982h-2.9551086V43.6400986
		h2.414093l13.8320007,14.4468002V43.6400986H372.2787781z"/>
	<path class="st0" d="M385.1537781,63.0169983h-9.0469055V43.6400986h9.0469055v2.7616997h-6.0917664v5.5474014h4.3163757v2.7372894
		h-4.3163757v5.5957108h6.0917664V63.0169983z"/>
	<path class="st0" d="M400.9857788,43.6400986h2.9551086v19.3768997h-2.9551086v-8.3070984h-9.8397827v8.3070984h-2.9589844
		V43.6400986h2.9589844v8.3344994h9.8397827V43.6400986z"/>
	<path class="st0" d="M416.8412781,43.5174904c5.6972046,0.0474091,9.7655945,3.6739082,9.8905945,9.5157089
		c0.0957031,5.7196999-3.9980774,10.2572899-10.039093,10.358799c-6.8789063-0.0760994-9.8339844-5.3540001-9.7597046-9.964798
		C406.9076843,49.4349976,409.888092,43.5394897,416.8412781,43.5174904z M416.7416687,60.652298
		c4.3418274-0.0741997,7.0019226-3.3778992,6.9277039-7.4940987c-0.0957031-4.2168007-2.734375-6.8769989-6.8280945-6.9034004
		c-5.0039063,0.0264015-6.8534851,4.3129997-6.828186,7.1724014
		C409.9370117,56.7557983,411.7884827,60.6034927,416.7416687,60.652298z"/>
	<path class="st0" d="M442.7884827,55.6239967c-0.5429077,0.0752029-1.1131897,0.1211014-1.7030945,0.1211014h-1.0078125v7.2719002
		h-2.960907V43.6400986h4.0664063c4.4648132,0,7.3730164,1.8232002,7.3730164,6.0419998
		c0,2.2416992-1.0605164,3.8945007-2.7617188,4.9028015l7.6679993,8.4320984h-4.1620789L442.7884827,55.6239967z
		 M440.0775757,53.0331993h1.1309204c2.5663757,0,4.1678772-1.0586014,4.1678772-3.4019012
		c0-2.2431984-1.5546875-3.2294998-4.0917969-3.2294998h-1.2070007V53.0331993z"/>
	<path class="st0" d="M463.4017944,43.5174904c5.695282,0.0474091,9.7655945,3.6739082,9.8866882,9.5157089
		c0.0976868,5.7196999-3.9941101,10.2572899-10.0371094,10.358799c-6.8768921-0.0760994-9.8320007-5.3540001-9.7616882-9.964798
		C453.4662781,49.4349976,456.450592,43.5394897,463.4017944,43.5174904z M463.3021851,60.652298
		c4.3418274-0.0741997,7.0039063-3.3778992,6.9296875-7.4940987c-0.0995789-4.2168007-2.7362976-6.8769989-6.8300781-6.9034004
		c-5.0019226,0.0264015-6.8515015,4.3129997-6.8262024,7.1724014
		C456.4994812,56.7557983,458.3490906,60.6034927,463.3021851,60.652298z"/>
	<path class="st0" d="M475.3158875,43.6400986h12.6268921v2.1929016l-8.9784851,14.4491997h8.9042969v2.7347984h-12.5780945
		v-2.1917992l8.8535156-14.4234009h-8.828125V43.6400986z"/>
	<path class="st0" d="M497.8294678,59.6180992l5.7911072-15.9780006h3.1835938l-7.5195923,19.3768997h-3.1034851
		l-7.0057983-19.3768997h3.1815796L497.8294678,59.6180992z"/>
	<path class="st0" d="M517.9760132,43.5174904c5.6972656,0.0474091,9.765686,3.6739082,9.890686,9.5157089
		c0.0957031,5.7196999-3.9960938,10.2572899-10.0352173,10.358799c-6.8789063-0.0760994-9.8378906-5.3540001-9.7637024-9.964798
		C508.0423889,49.4349976,511.0248718,43.5394897,517.9760132,43.5174904z M517.8783569,60.652298
		c4.3398438-0.0741997,7.0019531-3.3778992,6.9277344-7.4940987c-0.0957031-4.2168007-2.734436-6.8769989-6.8300781-6.9034004
		c-5.0039063,0.0264015-6.851532,4.3129997-6.828125,7.1724014
		C511.0736694,56.7557983,512.9232788,60.6034927,517.8783569,60.652298z"/>
	<path class="st0" d="M528.6831055,67.259201c1.7265015-1.4804001,2.5643921-3.5488014,2.5897827-5.9917107V43.6400986h2.9824219
		v17.6020012c0,3.4799995-1.3047485,6.2905998-3.6738281,8.2358971L528.6831055,67.259201z"/>
	<path class="st0" d="M546.7846069,43.6400986l7.1738892,19.3768997h-3.1817017l-2.2930298-6.5825081h-6.5097046
		l-2.3164063,6.5825081h-3.1816406l7.4238892-19.3768997H546.7846069z M542.9370117,53.6987h4.5858765l-2.2695313-6.5326996
		L542.9370117,53.6987z"/>
</g>
<g>
	<path class="st0" d="M92.5677948,72.3119965l7.2060928,19.464798h-3.1938858l-2.3042068-6.6113052h-6.5366058l-2.3280945,6.6113052
		h-3.1943054l7.4536057-19.464798H92.5677948z M88.7044907,82.4154892h4.6060028l-2.2778015-6.5634918L88.7044907,82.4154892z"/>
	<path class="st0" d="M112.4085922,72.3119965v19.464798h-2.9720993v-19.464798H112.4085922z"/>
	<path class="st0" d="M135.6625977,72.3119965v19.464798h-2.4019012L119.343689,77.2894897v14.4873047h-2.9721985v-19.464798
		h2.4272995l13.8931046,14.510704v-14.510704H135.6625977z"/>
	<path class="st0" d="M139.5067902,91.7767944v-19.464798h9.0879059v2.7733994h-6.1162109v5.6220932h4.3091125v2.7490005h-4.3091125
		v8.3203049H139.5067902z"/>
	<path class="st0" d="M159.6430054,72.1888962c5.7201843,0.0498047,9.8056793,3.6884995,9.9296875,9.5575943
		c0.0986023,5.746109-4.012207,10.3018036-10.078598,10.4024048c-6.9092102-0.0761948-9.8813019-5.3740005-9.8070984-10.0058975
		C149.6620941,78.1312943,152.6585846,72.213295,159.6430054,72.1888962z M159.5423889,89.3988953
		c4.3598938-0.0741959,7.0337067-3.392601,6.9584961-7.5274048c-0.0986023-4.2333908-2.7480011-6.9090958-6.8578796-6.934494
		c-5.0278168,0.0253983-6.8857117,4.3339996-6.860321,7.2060013
		C152.7088928,85.4847946,154.5658875,89.3500977,159.5423889,89.3988953z"/>
	<path class="st0" d="M178.2709961,84.3480988c-0.5469055,0.0741959-1.1133118,0.125-1.7089996,0.125h-1.0157013v7.3036957
		h-2.9730988v-19.464798h4.0883942c4.4804077,0,7.402298,1.8310013,7.402298,6.0673981
		c0,2.2539063-1.0643921,3.913002-2.773407,4.9277039l7.7012024,8.469696h-4.1835938L178.2709961,84.3480988z
		 M175.5462952,81.7464905h1.1407013c2.5741882,0,4.1835938-1.0633926,4.1835938-3.4160004
		c0-2.2548904-1.5605927-3.2450943-4.1114044-3.2450943h-1.2128906V81.7464905z"/>
	<path class="st0" d="M208.8314819,91.7767944v-12.976593l-6.7089996,12.976593h-2.6503906l-6.5135956-12.7538986v12.7538986
		h-2.9707031v-19.464798h3.2166901l7.6778107,15.5771027l7.9491882-15.5771027h2.972702v19.464798H208.8314819z"/>
	<path class="st0" d="M224.388092,72.3119965l7.2050934,19.464798h-3.191391l-2.3047028-6.6113052h-6.5390015l-2.3262024,6.6113052
		h-3.1952972l7.4530945-19.464798H224.388092z M220.5248871,82.4154892h4.6074066l-2.2792969-6.5634918L220.5248871,82.4154892z"/>
	<path class="st0" d="M231.8451843,72.3119965h15.652298v2.7733994h-6.339798v16.6913986h-2.9726868V75.0853958h-6.3398132
		V72.3119965z"/>
	<path class="st0" d="M252.4525909,72.3119965v19.464798h-2.9707031v-19.464798H252.4525909z"/>
	<path class="st0" d="M255.4525909,72.3119965h12.6776886v2.2041016l-9.0155945,14.5106964h8.9395142v2.75h-12.6270142v-2.2040939
		l8.8887024-14.4873047h-8.8632965V72.3119965z"/>
	<path class="st0" d="M279.7220764,72.3119965l7.2051086,19.464798h-3.1933899l-2.3027039-6.6113052h-6.5370789l-2.328125,6.6113052
		h-3.1933899l7.4530945-19.464798H279.7220764z M275.8587952,82.4154892h4.6054993l-2.2772827-6.5634918L275.8587952,82.4154892z
		 M277.5932007,71.4212952l-1.5840149-1.5116959l3.5645142-3.6903992l1.6581726,1.7352905L277.5932007,71.4212952z"/>
	<path class="st0" d="M288.1947937,82.1429977c-0.0234985-4.0117035,2.9707031-10.0791016,9.9550781-10.0791016
		c2.75,0,4.8300171,0.7685928,6.1894226,1.8564987v3.5166016c-1.4100952-1.4112015-3.1426086-2.6221008-6.1894226-2.6221008
		c-5.0273743,0-6.8828735,4.4561005-6.859375,7.3281021c0,3.1454926,1.8320007,7.2070999,6.859375,7.2070999
		c2.6015015,0,4.8046265-0.9169998,6.1894226-2.2294998v3.1201019c-1.5332031,1.1386948-3.242218,1.857399-6.1894226,1.857399
		c-6.984375-0.0253983-9.9550781-5.5468979-9.9550781-9.9307022V82.1429977z"/>
	<path class="st0" d="M310.2884827,72.3119965v19.464798h-2.9725952v-19.464798H310.2884827z"/>
	<path class="st0" d="M323.2162781,91.7767944h-9.0878906v-19.464798h9.0878906v2.7733994h-6.1171875v5.5723038h4.3339844v2.7490005
		h-4.3339844v5.6200943h6.1171875V91.7767944z"/>
</g>
</svg>
