<svg width="164" height="36" viewBox="0 0 164 36" fill="none" xmlns="http://www.w3.org/2000/svg">
<text fill="white" xml:space="preserve" style="white-space: pre" font-family="Source Sans Pro" font-size="24" font-weight="bold" letter-spacing="0em"><tspan x="35" y="26.532">mirri.gov.sk</tspan></text>
<rect x="35" y="35.9453" width="1.5" height="43.0301" transform="rotate(-90 35 35.9453)" fill="white"/>
<rect x="77.9395" y="35.9453" width="1.5" height="43.0301" transform="rotate(-90 77.9395 35.9453)" fill="white"/>
<rect x="120.97" y="35.9453" width="1.5" height="43.0301" transform="rotate(-90 120.97 35.9453)" fill="white"/>
<path d="M27.0434 16.7136C26.9817 19.6928 26.1014 22.6293 24.4265 25.4323L24.365 25.5365L24.3148 25.426C23.906 24.5222 23.1317 23.3621 21.7764 22.9764C20.6581 22.654 19.5465 22.9494 18.5286 23.8229L18.4601 23.8825L18.4272 23.7987C18.1783 23.1392 17.5409 21.8659 16.2211 21.1811C15.4933 20.7664 14.5876 20.7179 14.2415 20.7179C13.86 20.7179 12.9896 20.7289 12.164 21.1895C10.8206 21.8693 10.1683 23.1089 9.91163 23.7521L9.87708 23.8329L9.81071 23.7768C9.30994 23.3483 8.49915 22.8343 7.49205 22.8343C7.11216 22.8343 6.72599 22.9072 6.34652 23.0534C5.2847 23.4576 4.51703 24.4761 4.05967 25.2599L4.0051 25.3516L3.94915 25.262C2.31904 22.528 1.42733 19.6198 1.30296 16.6195C1.24024 15.1038 1.20737 13.5105 1.20737 11.8878C1.20737 6.8784 1.50644 2.83237 1.63584 1.32452L1.64167 1.26708H26.8233L26.825 1.32802C26.9042 2.95935 27.0837 7.32012 27.0837 12.5177C27.0837 13.9689 27.0722 15.3784 27.0434 16.7136ZM27.9973 0.633816L27.9665 0.0698204H0.541854L0.487871 0.60799C0.480408 0.680893 -0.257511 8.24164 0.095651 16.6705C0.478822 25.8209 7.57494 32.869 14.0088 35.5493L14.2325 35.6396L14.4599 35.5536C21.0075 33.0376 28.0661 25.5858 28.2494 16.7376C28.4209 8.39162 28.0023 0.707932 27.9973 0.633816Z" fill="white"/>
<path d="M14.1462 3.64153C14.2816 3.64786 15.516 3.5806 15.516 3.5806C14.7602 7.25404 14.8533 8.83062 14.8533 8.83062C17.9294 9.01557 20.747 8.21484 20.747 8.21484C20.6792 8.85376 20.7441 10.8701 20.7441 10.8701C17.9499 10.1023 14.864 10.2556 14.864 10.2556V15.0287C20.1077 15.1632 22.3079 14.4234 22.3079 14.4234C22.2289 15.3593 22.3136 17.0883 22.3136 17.0883C18.8332 16.2561 14.864 16.4703 14.864 16.4703V21.5908H14.8915H15.9246H15.9479L15.9457 17.5422C20.7131 17.4077 23.4905 18.57 23.4905 18.57C23.1988 14.8215 23.4905 12.9438 23.4905 12.9438C20.4337 14.1207 15.9457 13.9714 15.9457 13.9714L15.9541 11.338C18.7571 11.2288 21.9241 12.3553 21.9241 12.3553C21.6474 9.29522 21.9241 6.73955 21.9241 6.73955C19.3668 7.73155 15.9966 7.77352 15.9966 7.77352C15.9711 6.50415 16.9005 2.40365 16.9005 2.40365C16.0643 2.4857 14.1462 2.56412 14.1462 2.56412C14.1462 2.56412 12.2281 2.4857 11.3919 2.40365C11.3919 2.40365 12.3212 6.50415 12.2958 7.77352C12.2958 7.77352 8.9256 7.73155 6.36831 6.73955C6.36831 6.73955 6.6449 9.29522 6.36831 12.3553C6.36831 12.3553 9.53529 11.2288 12.3381 11.338L12.3466 13.9714C12.3466 13.9714 7.85865 14.1207 4.80176 12.9438C4.80176 12.9438 5.09359 14.8215 4.80176 18.57C4.80176 18.57 7.57921 17.4077 12.3466 17.5422L12.3445 21.5908H12.3681H13.4039H13.4284V16.4703C13.4284 16.4703 9.45908 16.2561 5.97879 17.0883C5.97879 17.0883 6.06343 15.3593 5.98441 14.4234C5.98441 14.4234 8.18467 15.1632 13.4284 15.0287V10.2556C13.4284 10.2556 10.3425 10.1023 7.5482 10.8701C7.5482 10.8701 7.61308 8.85376 7.54534 8.21484C7.54534 8.21484 10.363 9.01557 13.439 8.83062C13.439 8.83062 13.5321 7.25404 12.7764 3.5806C12.7764 3.5806 14.0109 3.64786 14.1462 3.64153Z" fill="white"/>
</svg>
